<svg viewBox="0 0 302.345 329.722" height="1246.194" width="1142.719" xmlns="http://www.w3.org/2000/svg">
  <defs>
    <clipPath clipPathUnits="userSpaceOnUse" id="a">
      <ellipse style="fill:#000;fill-opacity:.59292;stroke-width:0;stroke-linejoin:round" cx="224.342" cy="-3.133" rx="59.072" ry="48.857" transform="matrix(.67104 .74142 -.79233 .61009 0 0)"/>
    </clipPath>
  </defs>
  <g style="display:inline">
    <g style="display:inline">
      <g style="display:inline">
        <g style="display:inline;fill:#7e2c97;fill-opacity:.986726;stroke:none;stroke-opacity:1">
          <path style="fill:#7e2c97;fill-opacity:.986726;stroke:none;stroke-width:20;stroke-linejoin:round;stroke-miterlimit:4;stroke-dasharray:none;stroke-opacity:1" d="M571.55 20c-14.796 0-29.594.892-38 2.672-51.96 11.01-88.387 40.547-110.78 89.824-16.04 35.297-23.573 71.354-27.258 130.432-.847 13.572-2.063 26.185-2.701 28.025-1.55 4.456-2.977 5.065-64.594 27.496-68.286 29.918-128.672 59.654-185.711 83.457C-7.29 456.511-28.74 638.546 78.809 844.203c26.306 14.957 27.861 25.111 46.568 21.492 0 0 34.73-22.78 36.896-42.191 3.193-17.417-4.276-18.08-16.796-10.805-85.83-29.474 2.747-164.611 108.863-149.844.513.368 1.07.677 1.572 1.067 8.171 6.35 9.882 20.95 4.67 39.803-7.861 28.422-21.12 57.296-70.639 153.802-39.715 77.405-48.83 95.756-63.65 128.123-34.775 75.954-54.188 137.122-58.629 184.729-3.371 36.094 5.707 50.297 34.783 54.424 4.642.657 71.737 1.27 149.104 1.361 119.947.14 141.901-.155 149.04-1.996 25.172-6.49 33.087-16.864 85.645-112.24 35.15-63.776 51.64-91.4 62.098-104.012 14.43-17.405 23.13-20.483 34.25-12.115 14.31 10.764 27.994 32.153 74.293 116.127 53.121 96.34 60.379 105.808 86.068 112.324 7.658 1.943 27.477 2.168 154.364 1.768 134.35-.424 146.184-.658 153.498-3.024 10.862-3.519 16.168-7.43 20.136-14.83 4.8-8.95 6.139-20.205 4.498-37.787-4.456-47.724-23.77-108.582-58.632-184.729-14.831-32.39-23.955-50.76-63.659-128.123-27.662-53.905-45.279-89.592-56.47-115.181-9.114-35.873-41.303-152.006 21.435-194.266 26.725-21.582 52.85-38.304 73.86-53.736 45.573-33.472 71.92-67.39 80.912-104.164 2.978-12.186 3.014-40.278.066-54.856-4.728-23.376-16.04-44.806-29.752-56.37-3.61-3.043-11.361-8.096-17.227-11.225-22.121-11.796-42.489-15.415-98.668-17.512-55.921-1.843-150.576 17.619-150.576 17.619-14.276-6.845-25.5-34.98-31.47-53.227-4.244-42.94-11.627-72.844-24.928-102.113-22.394-49.277-58.82-78.814-110.777-89.824-8.41-1.78-23.211-2.672-38.004-2.672Z" transform="matrix(.26458 0 0 .26458 1.357 .17)"/>
          <path style="fill:#7e2c97;fill-opacity:.986726;stroke:none;stroke-width:0;stroke-linejoin:round;stroke-opacity:1" d="M170.505 56.017a18.3 18.523 0 0 1-18.3 18.523 18.3 18.523 0 0 1-18.3-18.523 18.3 18.523 0 0 1 18.3-18.524 18.3 18.523 0 0 1 18.3 18.524z" transform="matrix(1 0 0 -1 -11.23 238.105)"/>
          <path style="fill:#7e2c97;fill-opacity:.986726;stroke:none;stroke-width:0;stroke-linejoin:round;stroke-opacity:1" d="M160.073 55.68a8.927 10.936 80 0 1-9.22 10.69 8.927 10.936 80 0 1-12.319-6.892 8.927 10.936 80 0 1 9.22-10.69 8.927 10.936 80 0 1 12.319 6.892z" transform="matrix(1 0 0 -1 -11.23 238.105)"/>
        </g>
      </g>
      <g style="display:inline;stroke-width:.792759">
        <g style="display:inline;stroke-width:.792759" transform="matrix(1.25907 0 0 1.26377 -41.615 -27.136)">
          <path style="fill:#fff;stroke:#de6fd9;stroke-width:4.19501;stroke-linejoin:round;stroke-miterlimit:4;stroke-dasharray:none;stroke-opacity:1" d="M173.533 69.973c0 12.277-9.832 22.228-21.96 22.228s-21.96-9.951-21.96-22.228a22.297 22.297 0 0 1 6.044-15.315c10.967 3.04 19.957.468 32.076.264a22.298 22.298 0 0 1 5.8 15.051z"/>
          <ellipse style="fill:#7f2d97;fill-opacity:1;stroke:#de6fd9;stroke-width:2.09751;stroke-linejoin:round;stroke-miterlimit:4;stroke-dasharray:none;stroke-opacity:1" cx="135.056" cy="97.945" rx="10.936" ry="8.927" transform="rotate(-10)"/>
        </g>
        <path style="display:inline;fill:#fff;fill-opacity:1;stroke:none;stroke-width:.209751px;stroke-linecap:butt;stroke-linejoin:miter;stroke-opacity:1" d="m142.8 63.37 6.08 12.083 2.974-14.517z" transform="matrix(1.25907 0 0 1.26377 -41.615 -27.136)"/>
      </g>
      <g style="display:inline">
        <path style="fill:#fff;fill-opacity:1;stroke:none;stroke-width:.264583px;stroke-linecap:butt;stroke-linejoin:miter;stroke-opacity:1" d="M238.053 69.662c-1.37-10.9 2.474-18.955 4.897-24.01 1.625 15.022 8.023 19.636 9.162 23.379-1.738 6.002-8.847 11.215-14.06.631z" transform="translate(1.357 .17)"/>
        <path style="display:inline;fill:#fff;fill-opacity:1;stroke:none;stroke-width:.264583px;stroke-linecap:butt;stroke-linejoin:miter;stroke-opacity:1" d="M270.435 48.337c-2.714 7.608-5.204 11.306-12.163 21.483-.152 6.528 8.744 5.125 11.385 3.5 1.749-5.312.928-14.533.778-24.983z" transform="translate(1.357 .17)"/>
        <path style="fill:#fff;fill-opacity:1;stroke:none;stroke-width:.264583px;stroke-linecap:butt;stroke-linejoin:miter;stroke-opacity:1" d="M277.552 81.541c5.18-3.404 12.464-6.8 18.564-8.505-3.202 15.007-9.336 24.151-13.464 25.468-5.789-1.278-8.914-7.103-5.1-16.963z" transform="translate(1.357 .17)"/>
        <path style="display:inline;fill:#fff;fill-opacity:1;stroke:none;stroke-width:.264583px;stroke-linecap:butt;stroke-linejoin:miter;stroke-opacity:1" d="M295.163 117.487c-6.718-4.242-4.957-4.648-14.885-11.958-6.518-.38-9.534 8.876-8.001 11.571 5.247 1.934 12.438.172 22.886.387z" transform="translate(1.357 .17)"/>
        <g style="stroke:#b571c9;stroke-width:3.96875;stroke-linecap:round;stroke-linejoin:round;stroke-miterlimit:4;stroke-dasharray:none;stroke-opacity:1;paint-order:markers stroke fill">
          <g style="stroke:#b571c9;stroke-width:7.9375;stroke-miterlimit:4;stroke-dasharray:none;stroke-opacity:1">
            <path style="fill:#fff;fill-opacity:1;stroke:#b571c9;stroke-width:7.9375;stroke-linecap:round;stroke-linejoin:round;stroke-miterlimit:4;stroke-dasharray:none;stroke-opacity:1;paint-order:markers stroke fill" d="M238.053 69.662c-1.37-10.9 2.474-18.955 4.897-24.01 1.625 15.022 8.023 19.636 9.162 23.379-1.738 6.002-8.847 11.215-14.06.631z" transform="translate(1.357 .17)"/>
            <path style="display:inline;fill:#fff;fill-opacity:1;stroke:#b571c9;stroke-width:7.9375;stroke-linecap:round;stroke-linejoin:round;stroke-miterlimit:4;stroke-dasharray:none;stroke-opacity:1;paint-order:markers stroke fill" d="M270.435 48.337c-2.714 7.608-5.204 11.306-12.163 21.483-.152 6.528 8.744 5.125 11.385 3.5 1.749-5.312.928-14.533.778-24.983z" transform="translate(1.357 .17)"/>
            <path style="fill:#fff;fill-opacity:1;stroke:#b571c9;stroke-width:7.9375;stroke-linecap:round;stroke-linejoin:round;stroke-miterlimit:4;stroke-dasharray:none;stroke-opacity:1;paint-order:markers stroke fill" d="M277.552 81.541c5.18-3.404 12.464-6.8 18.564-8.505-3.202 15.007-9.336 24.151-13.464 25.468-5.789-1.278-8.914-7.103-5.1-16.963z" transform="translate(1.357 .17)"/>
            <path style="display:inline;fill:#fff;fill-opacity:1;stroke:#b571c9;stroke-width:7.9375;stroke-linecap:round;stroke-linejoin:round;stroke-miterlimit:4;stroke-dasharray:none;stroke-opacity:1;paint-order:markers stroke fill" d="M295.163 117.487c-6.718-4.242-4.957-4.648-14.885-11.958-6.518-.38-9.534 8.876-8.001 11.571 5.247 1.934 12.438.172 22.886.387z" transform="translate(1.357 .17)"/>
          </g>
        </g>
      </g>
      <g transform="matrix(1.1 0 0 1.1 -12.05 -10.388)" style="stroke-width:.909091">
        <ellipse style="fill:#3d004f;fill-opacity:1;stroke:#de6fd9;stroke-width:7.23283;stroke-linejoin:round;stroke-miterlimit:4;stroke-dasharray:none;stroke-opacity:1;paint-order:markers fill stroke" cx="218.463" cy="39.12" rx="54.693" ry="45.072" transform="matrix(.80585 .59212 -.66716 .74492 0 0)"/>
        <g clip-path="url(#a)" style="fill:#fff;fill-opacity:1;stroke:#de6fd9;stroke-width:5.20912;stroke-linecap:round;stroke-linejoin:round;stroke-miterlimit:4;stroke-dasharray:none;stroke-opacity:1;paint-order:markers fill stroke" transform="matrix(.9144 -.1756 .17873 .89836 -19.365 37.66)">
          <path style="fill:#fff;fill-opacity:1;stroke:#de6fd9;stroke-width:17.9558;stroke-linecap:round;stroke-linejoin:round;stroke-miterlimit:4;stroke-dasharray:none;stroke-opacity:1;paint-order:markers fill stroke" transform="matrix(.22703 .06755 -.04284 .35796 47.945 -64.936)" d="m488.023 488.023-39.524-36.284-39.524-36.284 51.185-16.087 51.184-16.087-11.66 52.37z"/>
          <path style="fill:#fff;fill-opacity:1;stroke:#de6fd9;stroke-width:20.7515;stroke-linecap:round;stroke-linejoin:round;stroke-miterlimit:4;stroke-dasharray:none;stroke-opacity:1;paint-order:markers fill stroke" transform="matrix(-.1827 -.12248 .17019 -.23082 147.575 358.926)" d="m488.023 488.023-39.524-36.284-39.524-36.284 51.185-16.087 51.184-16.087-11.66 52.37z"/>
          <path style="fill:#fff;fill-opacity:1;stroke:#de6fd9;stroke-width:17.475;stroke-linecap:round;stroke-linejoin:round;stroke-miterlimit:4;stroke-dasharray:none;stroke-opacity:1;paint-order:markers fill stroke" transform="matrix(-.08708 -.2472 .29844 -.17322 22.462 364.126)" d="m488.023 488.023-39.524-36.284-39.524-36.284 51.185-16.087 51.184-16.087-11.66 52.37z"/>
          <path style="fill:#fff;fill-opacity:1;stroke:#de6fd9;stroke-width:17.7364;stroke-linecap:round;stroke-linejoin:round;stroke-miterlimit:4;stroke-dasharray:none;stroke-opacity:1;paint-order:markers fill stroke" transform="matrix(.18187 -.17286 .28381 .20453 -104.038 125.477)" d="m488.023 488.023-39.524-36.284-39.524-36.284 51.185-16.087 51.184-16.087-11.66 52.37z"/>
          <path style="fill:#fff;fill-opacity:1;stroke:#de6fd9;stroke-width:18.922;stroke-linecap:round;stroke-linejoin:round;stroke-miterlimit:4;stroke-dasharray:none;stroke-opacity:1;paint-order:markers fill stroke" transform="matrix(.1238 .1998 -.25195 .20557 229.882 -49.595)" d="m488.023 488.023-39.524-36.284-39.524-36.284 51.185-16.087 51.184-16.087-11.66 52.37z"/>
          <path style="fill:#fff;fill-opacity:1;stroke:#de6fd9;stroke-width:18.922;stroke-linecap:round;stroke-linejoin:round;stroke-miterlimit:4;stroke-dasharray:none;stroke-opacity:1;paint-order:markers fill stroke" transform="matrix(-.23363 .02568 -.07701 -.31592 315.943 337.579)" d="m488.023 488.023-39.524-36.284-39.524-36.284 51.185-16.087 51.184-16.087-11.66 52.37z"/>
          <path style="fill:#fff;fill-opacity:1;stroke:#de6fd9;stroke-width:16.2364;stroke-linecap:round;stroke-linejoin:round;stroke-miterlimit:4;stroke-dasharray:none;stroke-opacity:1;paint-order:markers fill stroke" transform="matrix(-.24255 .1656 -.32599 -.2018 453.872 188.093)" d="m488.023 488.023-39.524-36.284-39.524-36.284 51.185-16.087 51.184-16.087-11.66 52.37z"/>
        </g>
      </g>
      <g transform="translate(1.357 .17)">
        <path style="display:inline;fill:#f2c5ff;fill-opacity:1;stroke:#de6fd9;stroke-width:2.2225;stroke-linecap:round;stroke-linejoin:round;stroke-miterlimit:4;stroke-dasharray:none;paint-order:markers fill stroke" d="M32.502 215.69a5.77 5.77 0 0 0 3.598-4.8 6.348 6.348 0 0 0-.637-3.442c-1.584-3.236-5.478-4.792-8.696-3.475-3.22 1.316-4.545 5.007-2.96 8.242 1.583 3.236 5.477 4.792 8.695 3.476z"/>
        <ellipse style="display:inline;fill:#f2c5ff;fill-opacity:1;stroke:#de6fd9;stroke-width:2.87862;stroke-linecap:round;stroke-linejoin:round;stroke-miterlimit:4;stroke-dasharray:none;stroke-opacity:1;paint-order:markers fill stroke" cx="138.184" cy="82.755" rx="11.235" ry="10.481" transform="matrix(-.25229 .96765 .95468 .29765 0 0)"/>
        <ellipse style="display:inline;fill:#f2c5ff;fill-opacity:1;stroke:#de6fd9;stroke-width:2.88911;stroke-linecap:round;stroke-linejoin:round;stroke-miterlimit:4;stroke-dasharray:none;stroke-opacity:1;paint-order:markers fill stroke" cx="-24.21" cy="173.86" rx="8.655" ry="8.161" transform="matrix(-.92373 .38305 .26071 .96542 0 0)"/>
        <path style="display:inline;fill:#f2c5ff;fill-opacity:1;stroke:#de6fd9;stroke-width:2.42042;stroke-linecap:round;stroke-linejoin:round;stroke-miterlimit:4;stroke-dasharray:none;paint-order:markers fill stroke" d="M15.041 182.801c-.385 3.207 1.039 6.112 3.495 7.827 1.32.922 2.94 1.5 4.738 1.594 5.14.27 9.787-3.51 10.379-8.442.592-4.932-3.094-9.15-8.233-9.42-5.14-.27-9.787 3.509-10.379 8.441z"/>
        <ellipse style="display:inline;fill:#f2c5ff;fill-opacity:1;stroke:#de6fd9;stroke-width:2.88911;stroke-linecap:round;stroke-linejoin:round;stroke-miterlimit:4;stroke-dasharray:none;stroke-opacity:1;paint-order:markers fill stroke" cx="92.75" cy="-129.617" rx="8.655" ry="8.161" transform="matrix(.99177 .128 .25485 -.96698 0 0)"/>
      </g>
    </g>
    <circle style="fill:#000;stroke:#000;stroke-width:.264583" cx="24.284" cy="323.466" r=".978"/>
    <circle style="fill:#000;stroke:#000;stroke-width:.264583" cx="24.284" cy="323.466" r=".978"/>
    <circle style="fill:#000;stroke:#000;stroke-width:.264583" cx="271.794" cy="272.663" r=".874"/>
    <circle style="fill:#000;stroke:#000;stroke-width:.264583" cx="271.794" cy="272.663" r=".874"/>
  </g>
  <g style="display:inline">
    <path style="display:inline;fill:#50225e;fill-opacity:.988235;stroke-width:4;stroke-linecap:round;stroke-linejoin:round;paint-order:stroke markers fill" d="M64.049 127.565c-3.49 1.261-6.43 3.486-9.723 5.215-1.3.682 2.581-1.424 3.74-2.324.604-.468-1.368.676-2.053 1.014-4.052 2.23-8.094 4.552-11.643 7.544-2.295 1.934-4.376 4.144-6.515 6.245-1.88 1.905-3.635 3.93-5.363 5.973-.542.64-1.109 1.262-1.6 1.942-1.097 1.522-1.827 2.992-2.72 4.636-2.692 4.794-4.229 10.12-5.466 15.446-1.365 5.299-1.715 10.774-1.707 16.224-.072 4.816.381 9.596.92 14.374a35.86 35.86 0 0 0 3.362 10.463c.742 1.266 1.443 2.599 2.497 3.646.682.677 1.562 1.221 2.37 1.733.81.192 1.25.932 1.92 1.34.236.144.514.205.77.307l5.503-3.816c-.212-.002-.443.081-.637-.006-.774-.35-1.006-1.453-1.974-1.449-1.42-.745-.075.014-1.551-1.005-.261-.18-.563-.3-.809-.5-1.13-.921-1.747-2.242-2.472-3.47-.246-.426-.528-.834-.736-1.28-.379-.807-.971-2.6-1.26-3.44-.612-1.782-1.179-3.576-1.396-5.459-.66-4.717-1.034-9.465-1.02-14.232.034-5.41.337-10.822 1.734-16.078 1.31-5.278 2.806-10.567 5.555-15.304 1.09-1.929 1.49-2.782 2.817-4.554.503-.67 1.069-1.292 1.61-1.933 1.695-2.005 3.396-4.012 5.251-5.872 2.814-2.775 5.594-5.522 8.798-7.852.705-.513 2.99-1.713 2.145-1.498-1.207.308-2.187 1.192-3.28 1.788 4.446-2.189 1.33-.622 9.234-4.918 1.439-.724-2.8 1.592-4.192 2.403-.357.208.71-.424 1.086-.593.292-.13.605-.21.912-.302.184-.056.373-.094.56-.142l5.333-4.266zM72.55 141.795l-1.41-2.2-8.91 5.103 1.007 2.354 9.314-5.257z"/>
    <path style="display:inline;fill:#50225e;fill-opacity:.988235;stroke-width:4;stroke-linecap:round;stroke-linejoin:round;paint-order:stroke markers fill" d="M65.29 127.94c-.007-.256-.183-.57-.02-.766.113-.138.648.085.5.185-2.893 1.941-6.211 3.26-8.913 5.46-.36.294.654.667.926 1.044.968 1.343 1.446 2.525 2.184 4.04 1.02 2.585.812 1.451.993 3.31l9.385-5.127c-.868-1.687-.352-.63-1.463-3.208-.765-1.871-1.036-2.755-2.017-4.423-.27-.459-.387-1.454-.902-1.318-11.973 3.167-9.811.824-10.413 5.564l9.74-4.761zM188.715 123.252c-2.266-1.888-4.968-3.088-7.515-4.526-1.698-.96-3.359-1.984-5.039-2.976-6.476-3.572-13.535-5.862-20.698-7.583-6.464-1.517-13.094-2.084-19.711-1.633-4.879.07-9.195 1.95-13.507 4.015-17.714 10.308-6.2 3.175-12.928 7.786-1.668 1.143-2.513 1.525-3.969 2.922-.48.46-2.749 3.117-3.197 3.638-3.093 3.572-5.276 7.749-6.915 12.15-1.075 2.38-1.388 4.91-1.673 7.471-.163 1.462-.455 3.655-.405 5.143.031.91.196 1.809.294 2.714.898 3.962 1.576 7.98 2.739 11.877.131.44 2.132 6.67 2.266 7.085 1.363 3.56 3.294 6.867 5.306 10.092.658 1.054 1.282 2.135 2.038 3.121 1.475 1.924 4.374 4.813 6.018 6.512 5.262 5.51 11.313 10.287 17.981 13.998 1.6.89 3.264 1.658 4.896 2.486 1.684.798 3.368 1.594 5.05 2.393 2.541 1.206 6.063 2.95 8.73 3.975 5.056 1.942 10.29 3.216 15.55 4.45 6.842 1.441 13.748 2.821 20.728 3.405 3.864.323 4.823.207 8.623.128 1.259-.178 2.544-.22 3.775-.535 1.127-.289 2.242-.687 3.251-1.263 7.789-4.445 11.975-6.354 16.596-13.04.768-1.112 1.384-2.322 2.076-3.483 1.436-3.366 2.098-4.687 3.197-8.245.483-1.565 1.05-3.123 1.276-4.745.85-6.103-.76-12.394-1.823-18.35-1.685-7.014-5.252-13.284-8.536-19.629-2.998-5.79-3.164-6.77-7.426-12.058-1.69-2.097-3.613-3.995-5.419-5.992-8.807-7.47-4.155-3.97-13.98-10.47l-7.165 4.588c9.634 6.45 5.09 2.97 13.663 10.407 1.744 1.992 3.617 3.878 5.232 5.976 3.093 4.019 4.948 7.578 7.298 12.003 3.313 6.237 6.705 12.503 8.27 19.457.758 4.623 1.522 8.158 1.576 12.851.02 1.786-.064 3.585-.371 5.344-.744 4.262-3.031 8.925-4.814 12.85-1.994 3.147-2.13 3.69-4.696 6.423-.903.962-4.186 2.772-2.867 2.729 2.138-.07 3.855-1.858 5.764-2.825 2.17-1.098-9.124 4.758-6.953 2.21-3.61.165-5.052.322-8.723.108-7.006-.407-13.905-1.857-20.767-3.237-1.759-.391-3.533-.72-5.278-1.174-8.32-2.165-16.212-5.692-23.916-9.442-3.533-1.897-5.482-2.836-8.782-5-4.974-3.26-9.554-7.11-13.73-11.338-1.852-2.006-4.063-4.291-5.716-6.492-2.967-3.954-5.274-8.45-7.216-12.974-1.963-6.189-3.608-12.49-4.639-18.907-.062-.87-.173-1.74-.185-2.612a32.46 32.46 0 0 1 2.278-12.343c1.705-4.296 3.931-8.347 7.035-11.808 1.073-1.213 2.05-2.392 3.27-3.466 2.839-2.497 13.89-8.867-.803-.379 2.684-1.366 1.149-.629 3.963-1.88.99-.44 3.227-1.488 4.28-1.78 1.21-.336 4.037-.655 5.22-.809 2.448-.234 3.652-.417 6.138-.37 4.556.086 9.099.789 13.567 1.62 7.042 1.622 14.065 3.785 20.324 7.474 6.922 4.01-1.993-1.17 5.068 2.981 2.387 1.404 4.973 2.651 6.852 4.744l9.174-5.762zM274.022 281.137c.183.426.005.61-.158.986-1.215 2.822 2.185-.85 5.412-2.87.004.017.019.067.011.051-1.036-2.215-1.878-4.54-2.689-6.845-1.704-4.251-3.491-8.468-5.227-12.707-1.725-4.544-4.017-8.846-6.284-13.136-2.277-4.565-4.859-8.968-7.359-13.413-.404-.7-.793-1.41-1.211-2.102-.846-1.398-1.764-2.751-2.62-4.144-1.264-2.056-2.497-4.129-3.777-6.176-2.507-4.012-4.864-8.128-6.907-12.396-2.036-4.467-3.715-9.076-5.086-13.786-1.312-4.977-2.816-9.922-3.723-14.991-.618-4.041-.625-8.095-.327-12.158.402-1.92.69-3.898 1.323-5.762.114-.337.96-2.404 1.061-2.655.508-1.34 1.208-2.578 1.698-3.925.177-.487.292-.996.491-1.473.45-1.075.75-1.389 1.412-2.32.928-1.76 2.168-3.312 3.24-4.978 2.177-3.385-.39.398 1.812-2.802 1.874-2.5 3.926-4.85 5.894-7.274 1.764-1.995 4.035-3.47 6.243-4.93-.752.32 2.894-1.805 2.157-1.376-1.476.86-5.906 3.44-4.422 2.592a710.189 710.189 0 0 0 6.744-3.919c.414-.243 1.644-.992 1.227-.754-1.447.826-2.877 1.678-4.316 2.518 3.198-1.599 2.803-1.363 7.948-4.65.428-.272.755-.678 1.15-.996 1.005-.812 2.062-1.532 3.047-2.37 1.273-1.05 2.508-2.112 3.632-3.32.245-.323.397-.596.747-.806.094-.057.225-.04.315-.102.1-.069.154-.185.23-.278.071-.085.308-.31.212-.257-1.918 1.08-3.795 2.23-5.693 3.345.362-.316-.393.304.23 0 .045-.021-.128-.281-.364-.648l6.323-2.724c-.037-.088-.265-.783-.517-.821-.04-.006-.021.08-.032.12-.063-.026-.127-.05-.19-.075-3.83 2.17-5.312 2.309-7.472 4.839-1.09 1.142-2.307 2.14-3.496 3.178-.981.795-1.987 1.554-2.974 2.341-.396.316-1.646 1.16-1.185.951 1.103-.497 6.863-3.662 3.146-1.812-2.265 1.303-4.535 2.597-6.796 3.908-.422.245-1.68.997-1.253.76 1.482-.826 5.891-3.365 4.42-2.522-3.003 1.72-6.09 3.316-8.95 5.276-2.179 1.46-4.354 3.02-6.036 5.054-2 2.412-4.044 4.784-5.873 7.332-1.716 2.6-3.486 5.163-5.122 7.815-.24.386-.507.755-.719 1.157-.522.986-.7 1.699-1.115 2.744-.523 1.316-1.162 2.582-1.662 3.908-.391.928-.788 1.793-1.079 2.757-.569 1.889-.89 3.87-1.155 5.819-.057.885-.192 2.748-.188 3.628.01 2.867.416 5.745.775 8.581a242.891 242.891 0 0 0 3.733 15.056c1.491 4.707 2.992 9.41 5.106 13.884a111.243 111.243 0 0 0 6.989 12.42c2.458 4.18 5.087 8.254 7.605 12.397 2.463 4.46 5.07 8.84 7.358 13.394 2.217 4.302 4.462 8.602 6.173 13.137 1.792 4.207 3.556 8.43 5.109 12.732.586 1.67 1.181 3.339 1.732 5.022.232.71.378 1.453.681 2.136.13.292.322.552.484.829 2.587-1.604 6.704-2.22 6.121-5.61l-6.014 3.215zM29.726 265.728c-.458 2.21-1.04 4.364-1.846 6.472-.543 1.368-.867 2.809-1.355 4.195-.348.991-1.49 3.712-1.863 4.669-2.27 5.804.354-.653-2.051 5.2-1.957 3.831-3.455 7.853-4.636 11.983-.866 3.73-1.423 7.527-1.831 11.333-.495 3.306-.476 6.667-.353 10 .192 1.552.559 3.142 1.333 4.518.301.534.664 1.03.99 1.55.792 1.119 2.062 2.022 3.448 2.165L28.094 324l-6.704 2.697 5.886-3.287c-.106.105-.172.28-.317.316-.203.05-.88-.355-.99-.402-.727-.31-1.321-.463-1.737-1.23-.438-.74-1.073-1.481-1.421-2.268-.482-1.091-.628-2.295-.813-3.46-.304-3.25-.13-6.535.192-9.777.507-3.776 1.02-7.576 1.953-11.273a79.719 79.719 0 0 1 4.413-11.795c1.936-4.71 3.844-9.43 5.564-14.223.826-2.209 1.547-4.464 2.091-6.76l-6.485 3.19z"/>
    <path style="display:inline;fill:#50225e;fill-opacity:.988235;stroke-width:4;stroke-linecap:round;stroke-linejoin:round;paint-order:stroke markers fill" d="M21.152 324.644c2.08.618 4.213.996 6.34 1.408 2.675.555 5.404.711 8.125.86 2.877.056 5.755.08 8.633.049 2.304.013 4.608-.035 6.912-.027.551.003 1.103.037 1.654.012.719-.033 1.434-.125 2.15-.187 4.565-.545 9.137-.968 13.73-1.139 4.44-.149 8.874-.114 13.297-.57 4.18-.461 8.368-.807 12.53-1.408 3.333-.36 6.622-1.048 9.835-1.998 3.59-.93 6.111-3.225 9.524-4.961 1.794-.914-3.443 2.09-5.164 3.136l5.578-4.348c-14.105 7.622-5.292 2.904-1.835.892.805-.468-3.371 1.805-2.599 1.022-3.223 1.05-6.557 1.83-9.926 2.211-4.172.533-8.34 1.075-12.53 1.435-4.42.47-8.841.574-13.284.609-4.587.248-9.164.511-13.723 1.102-3.518.284-7.042.146-10.57.164-2.844-.028-5.69.02-8.534-.083-2.71-.076-5.424-.23-8.09-.756-2.047-.401-4.103-.742-6.062-1.488l-5.991 4.064z"/>
    <path style="display:inline;fill:#50225e;fill-opacity:.988235;stroke-width:4;stroke-linecap:round;stroke-linejoin:round;paint-order:stroke markers fill" d="M111.292 320.17c.492-1.935 1.871-3.393 2.897-5.048.466-.753 2.513-4.388 2.886-5.047 3.643-5.856 7.291-11.709 10.6-17.762 3.04-5.129 6.28-10.137 9.421-15.206 2.161-3.035 3.825-6.384 6.1-9.337.891-1.134 1.254-2.605 2.347-3.591.22-.198.528-.27.772-.436.75-.511.725-.634 1.288-1.415-1.824 1.108-3.651 2.21-5.471 3.325-.066.04.138-.064.205-.101 2.258-1.244 4.575-2.39 6.769-3.743.254-.157.306-.518.503-.743.433-.497.623-.525 1.177-.79-10.44 6.581-6.4 3.34-4.091 2.637.275-.084.564-.113.847-.17l5.7-4.215c-.316-.006-.636-.067-.949-.019-.258.04-.492.175-.732.277-2.608 1.104-4.614 3.567-7.453 4.082-.865.698-.152.085-1.029.967-.21.212-.918.748-.647.62 1.986-.932 3.968-1.896 5.832-3.054.167-.104-.37-.323-.545-.232-2.273 1.17-4.398 2.607-6.598 3.911-.248.257-.481.53-.746.771-.606.554-.728.444-1.242 1.09-.889 1.114-1.445 2.45-2.308 3.583-2.085 3.006-3.8 6.243-5.833 9.285-2.995 5.04-6.166 9.972-9.061 15.071-1.78 3.113-3.528 6.254-5.416 9.303-1.227 1.982-2.538 3.91-3.767 5.891-.54.871-1.058 1.756-1.587 2.633-1.198 2.02-1.84 3.177-3.14 5.097-1.18 1.744-2.517 3.376-3.32 5.348l6.59-2.982z"/>
    <path style="display:inline;fill:#50225e;fill-opacity:.988235;stroke-width:4;stroke-linecap:round;stroke-linejoin:round;paint-order:stroke markers fill" d="M153.852 258.213c-.084-.044-.192-.057-.251-.13-.035-.045.11.029.166.023.11-.011.414-.134.322-.073-1.862 1.234-3.973 2.129-5.65 3.605-.281.247.7.277 1.02.47.525.316 1.005.701 1.507 1.051.613.516 1.264.99 1.84 1.547 1.351 1.309 2.618 2.93 3.738 4.429 2.002 2.68 3.702 5.506 5.412 8.376 2.888 4.897 5.116 10.128 7.476 15.288 1.142 2.147 2.007 4.435 3.129 6.592 1.15 2.21 2.533 4.31 3.811 6.445a82.521 82.521 0 0 0 7.783 10.693c1.42 1.26 2.611 2.891 4.22 3.94 1.599 1.042 3.573 1.456 5.373 1.997l5.61-3.835c-1.718-.498-3.598-.912-5.158-1.83-1.64-.963-2.905-2.47-4.277-3.748-2.87-3.302-5.451-6.869-7.761-10.584-1.34-2.081-2.675-4.156-3.805-6.362-.59-1.152-1.532-3.282-2.08-4.445-.339-.72-.691-1.435-1.037-2.152-2.48-5.12-4.822-10.312-7.748-15.204-3.085-5.245-6.269-10.596-10.75-14.784-.466-.406-.92-.828-1.398-1.22-.33-.269-.62-.892-1.023-.76-1.999.657-8.16 2.257-6.816 4.477.058.095.183.127.274.19l6.073-3.996z"/>
    <path style="display:inline;fill:#50225e;fill-opacity:.988235;stroke-width:4;stroke-linecap:round;stroke-linejoin:round;paint-order:stroke markers fill" d="M191.797 322.726c3.546.106 7.072.49 10.592.9 3.55.337 7.093.724 10.651.967 3.206.21 6.412.437 9.623.528 3.706.098 7.413.09 11.12.13 3.817.035 7.634-.033 11.452-.047 4.066-.014 8.133.053 12.199.028 3.76-.028 7.52.041 11.28-.017 1.098-.076 1.82-.083 2.884-.315 3.429-.746 6.509-3.088 9.386-4.781-11.943 6.947 1.099-.597 1.633-.921.606-.368 1.507-1.386 1.903-1.987.25-.607.717-1.054.891-1.698.067-.246.04-.512.117-.754.125-.39.766-1.487.93-1.78.725-3.113.361-6.336.168-9.49-.1-.592-.429-2.429-.448-3.063-.066-2.202.401-.597-.168-2.926-.213-.872-.659-1.975-.979-2.818-.432-1.264-1.282-2.334-1.718-3.595-.106-.307-.142-.634-.222-.949-.214-.843-.312-1.125-.566-1.949-.132-1.147-.78-2.107-1.184-3.155-.177-.46-.193-.753-.264-1.235-.32-.697.123-1.256.173-1.924.063-.857-.318-.777.021-1.682l.262-.619-5.771 2.677-.258.724c-.026.222-.077.442-.078.666-.004.968.183-.017.078 1.001-.074.723-.297 1.418-.057 2.148.3 1.553 1.23 2.87 1.564 4.424.308.964.494 2.016.877 2.952.496 1.211 1.348 2.263 1.752 3.52.367.914.73 1.713.941 2.685.412 1.891.044.996.16 2.916.027.436.393 2.596.461 3.01.216 3.068.573 6.264-.44 9.23-.191.35-.4.692-.575 1.051-1.088 2.245.104-.09-.585 1.58-.235.571-.645 1.06-.959 1.586a9.548 9.548 0 0 1-1.304 1.28c-.194.154-.817.559-.6.44.796-.439 14.059-8.1-1.632.956l4.637-2.606c-.313.17-.613.364-.937.512-.114.051-2.185.823-2.275.849-1.186.34-1.628.316-2.883.43-3.778.185-7.56.046-11.341.086-4.094-.025-8.188.044-12.282.032-3.774-.011-7.548-.073-11.322-.046-3.704.024-7.41-.005-11.114-.109-3.201-.132-6.396-.337-9.593-.529-3.575-.208-7.138-.573-10.704-.89-3.45-.396-6.906-.727-10.35-1.162l-5.146 3.739z"/>
    <path style="display:inline;fill:#50225e;fill-opacity:.988235;stroke-width:4;stroke-linecap:round;stroke-linejoin:round;paint-order:stroke markers fill" d="M272.755 275.097c3.05 3.19 4.053 7.51 5.745 11.442.362.841.806 1.646 1.209 2.468.218.416.214 1.405.656 1.247 1.993-.712 3.932-1.84 5.365-3.397.377-.41-.724-.845-1.046-1.298-1.835-2.576-3.295-5.355-4.771-8.143-.316-.686-.678-1.353-.947-2.06-.828-2.175.805-6.868-5.327 2.796-.462.728.848 1.506 1.202 2.293 1.109 2.468 1.693 4.391 2.564 6.955.17.629-.107 2.092.512 1.887 2.053-.682 4.06-2.002 5.26-3.803.472-.709-.832-1.487-1.24-2.235-1.062-1.95-2.056-3.938-3.21-5.837-1.775 1.547-4.21 2.566-5.324 4.64-.554 1.029.66 2.242 1.025 3.353.435 1.328.884 2.654 1.374 3.963.25.668.147 2.103.846 1.965 7.459-1.477 6.367-2.021 4.91-5.515-.887-1.934-2.003-3.752-2.924-5.668-.255-.529-.11-1.804-.67-1.629-2.022.633-4.031 1.808-5.307 3.5-.464.613.807 1.31 1.168 1.988.483.907.909 1.844 1.363 2.766 1.549 3.834.22 2.203 5.88-2.292l-5.505 2.939c6.19-2.029 6.622-.165 4.588-3.445-.388-.959-.809-1.905-1.165-2.876-.264-.718.07-2.24-.692-2.186-2.057.146-4.053 1.268-5.598 2.633-.435.385.713.921 1.006 1.422 1.443 2.461 1.57 3.06 2.63 5.701.437 2.864.116 4.963 5.493-.344.481-.474-1.023-.938-1.298-1.555-.568-1.272-.88-2.648-1.186-4.008-.26-1.154.611-3.12-.505-3.512-1.777-.623-3.646.946-5.468 1.42.284.197.639.32.854.592.857 1.084 2.122 3.676 2.605 4.86.31.76-.05 2.311.77 2.338 1.99.066 4.031-.88 5.584-2.127.482-.387-.635-1.062-.953-1.594-1.376-4.129-1.027-3.003-2.304-7.138-.267-.864.113-2.565-.79-2.596-2.11-.074-4.08 1.252-5.873 2.363-.95.589 4.364 2.69 1.697 2.894 1.489 2.59 1.697 2.884 3.107 5.64.462.902.898 1.818 1.34 2.73.234.481.168 1.577.688 1.45 2.052-.496 3.986-1.6 5.592-2.97.348-.296-.627-.664-.94-.996-.456-.763-.996-1.481-1.367-2.29-.457-.992-1.875-5.346-2.293-6.426-.976-2.523-.98-2.32-2.16-4.437-.212-.379-.417-.76-.625-1.141l-5.545 3.273zM156.773 259.371c-3.121-.524-6.3-.495-9.436-.883-2.067-.256-1.554.023-2.512-.694-5.14 4.404-5.494 3.397-.906 3.094a82.555 82.555 0 0 1 7.108-.126c.446.012.968.354 1.334.1 1.516-1.054 2.676-2.545 4.014-3.817a74.096 74.096 0 0 1-9.224-1.296c-.45-.094-.934-.562-1.338-.341-1.744.955-3.615 1.997-4.714 3.654-.434.655 1.57-.064 2.355-.096 3.896.135 7.807.545 11.633 1.308.462.092.89.33 1.357.391.214.028-.742-.148-.58-.29 1.324-1.154 2.893-1.992 4.339-2.988-.452.031-.903.109-1.355.094-.986-.033-2.186-.32-3.123-.575-.262-.071-.535-.4-.77-.265-6.036 3.487-7.109 3.048-4.829 3.783 1.503-1.227 3.411-2.081 4.508-3.682.34-.496-1.193-.165-1.778-.303-1.843-.435-2.286-.739-4.08-1.26-.679-.198-1.49-.364-2.208-.517-1.879 1.13-3.839 2.137-5.637 3.392-.13.09-.012.531.125.455 6.067-3.405 6.982-3.56 4.673-3.312-.015.002.058-.013.045-.004-1.743 1.191-3.495 2.37-5.242 3.556.084 0 .254.082.254-.003 0-.103-.169-.12-.254-.18 1.56-1.11 3.295-2.005 4.679-3.326.242-.232-.663-.114-.987-.2-.14-.037-.277-.24-.402-.167-1.867 1.101-3.61 2.4-5.416 3.599.61.793.038.93 5.185-3.251.221-.18-.548-.16-.814-.262-.066-.025-.119-.159-.176-.117-1.696 1.21-3.312 2.529-4.969 3.793 2.593.188 1.33.19 6.12-3.298.166-.121-.24-.336-.345-.514-.169-.285-.048-.213-.39-.548l-5.497 3.437c.248.124.134.27.323.48.047.053-.122-.163-.063-.2 4.837-2.972 7.597-3.793 5.163-3.044-1.885 1.215-3.787 2.404-5.655 3.644-.072.047.166-.071.25-.059.242.036.476.285.705.2 5.397-1.98 7.418-.91 5.849-3.424-1.854 1.072-3.767 2.05-5.562 3.217-.147.095.353.015.521.061.348.095.686.494 1.021.36 2.198-.874 4.292-2.018 6.298-3.273.387-.242-.574-.77-.594-.783-1.874 1.193-3.83 2.266-5.622 3.58-.117.085.153.254.268.344.18.14.395.438.597.333.395-.206 14.325-9.005.389-.781 2.366-.174 4.253.764 6.448 1.52.537.185 1.086.752 1.614.545 2.18-.857 4.037-2.374 6.056-3.56-2.088-1.412-.828-.706-5.764 3.368-.244.202.634.053.943.122 1.499.336 2.936.978 4.514.78 2.202-1.13 4.523-2.052 6.606-3.388.2-.129-.15-.534-.376-.608-.566-.186-1.192-.047-1.785-.103-3.371-.318-4.208-.51-7.721-1.03-1.22-.18-2.44-.354-3.66-.53-3.664-.46-3.155-.84-7.492 3.458-.39.387 1.098.05 1.644.116 2.956.355 5.889.928 8.795 1.568 2.027-1.13 4.208-2.018 6.083-3.387.466-.34-1.144.171-1.72.202-1.11.058-2.223.056-3.335.064-1.235.008-2.47-.003-3.704-.016-.914-.009-1.9-.408-2.74-.05-2.267.962-4.19 2.588-6.284 3.883 1.6.433.573.2 3.114.504.937.112 1.873.239 2.813.336 2.042.21 4.116.255 6.11.8l5.206-3.59zM106.939 70.548c-3.21 1.405-.804.308-7.56 4.461-.539.331-2.147 1.33-1.597 1.021 1.08-.605 2.338-1.007 3.184-1.911.701-.749-1.822.942-2.727 1.424-1.196.635-2.385 1.284-3.577 1.926-1.271.65-2.528 1.33-3.814 1.952-3.03 1.465-4.463 1.992-7.538 3.313-3.791 1.63-7.545 3.344-11.322 5.009-6.615 2.848-13.302 5.523-19.848 8.53-7.88 3.18-14.924 7.97-22.095 12.456-3.737 2.327-7.227 5.031-10.695 7.738-3.18 2.409-5.866 5.324-8.26 8.497-1.716 2.416-3.167 5.092-4.19 7.877-.521 1.388-1.26 2.692-1.75 4.092-.147.42-.234.86-.363 1.286-.422 1.39-.535 1.64-1.042 3.028-.495 1.31-.722 2.695-1.07 4.046-.301 1.164-.434 1.253-.55 2.437-.04.395-.026.793-.038 1.189-.09 1.114-.168 2.213-.009 3.324.048.336.15.665.18 1.003.014.167-.015 2.113-.016 2.234.253 1.595.173 3.205.264 4.809.048.85.17 1.695.25 2.543.238 3.934.235 7.87.331 11.808.016.849.05 1.697.047 2.546-.014 3.342-.14 2.092-.096 5.443.033 2.547.33 5.064.597 7.595.358 2.421.848 4.818 1.28 7.227.143.8.235 1.612.442 2.398.563 2.138.913 2.521 1.947 4.46.391.711.78 1.424 1.174 2.135.86 1.55 1.329 2.485 2.376 3.903.441.597.94 1.149 1.411 1.723 1.76 2.15.937 1.095 2.515 3.21 1.895 2.661 4.108 4.47 6.905 6.097.544.208 1.072.463 1.631.625 1.976.57 4.898.905 6.973.82.539-.023 1.073-.102 1.61-.153.849-.125 1.995-.252 2.82-.535a9.582 9.582 0 0 0 1.513-.663c2.345-1.29 6.77-2.645 9.08-3.998 1.34-.786 1.218-.776 2.347-1.788 1.086-1.366.381-2.953.267-4.846-.072-1.194-.39-1.416-1.012-2.401-1.833-2.038-4.223-3.433-6.289-5.194-.419-.358-.798-.76-1.197-1.14-1.879-2.007-2.648-4.497-2.325-7.231.08-.674.269-1.331.403-1.996 1.42-4.26 3.7-7.968 6.778-11.228.68-.72 1.419-1.383 2.128-2.075a66.04 66.04 0 0 1 7.413-5.456c.875-.553 2.322-2.53 2.684-1.56.367.985-2.728.74-2.6 1.783.116.956 1.793-.699 2.69-1.049 3.065-1.262 5.837-1.735 9.122-1.184.588.099 1.196.179 1.74.425.437.199.76.587 1.141.88.626 1.056 1.04 1.535 1.249 2.788.099.588.092 1.192.068 1.788-.116 2.832-.953 4.975-1.945 7.594-2.935 6.7-4.034 13.01-7.676 19.342-3.998 6.732-8.503 13.474-12.196 20.38-3.661 7.319-8.34 14.906-11.674 22.378-1.873 3.95-3.472 8.02-4.554 12.258-.361 1.178-1.6 2.397-1.83 3.604-.055.291-.16.575-.176.87-.021.392.218 1.03.324 1.372l.17.875 6.392-3.117-.152-.944c-.075-.371.3-.735.305-1.114.02-1.468.606-2.904.811-4.344.047-.188.682-2.766.728-2.925.885-3.071 4.298-6.002 5.433-8.984 1.515-3.605 2.592-7.168 4.129-10.764 1.672-3.91 3.811-7.854 5.934-11.553 1.47-2.814 2.139-4.165 3.747-6.95 2.6-4.501 5.396-8.889 7.946-13.419 2.957-5.097.858-1.423 3.643-6.44 2.383-4.291 2.256-8.525 4.16-13.06 1.19-3.052 2.652-6.58 2.054-9.953-.232-1.312-.77-1.999-1.428-3.121-.452-.356-.835-.823-1.355-1.067-.575-.271-1.228-.336-1.855-.444-1.12-.192-3.416-.393-4.527-.291-1.874.172-3.166.75-4.937 1.364-.903.338-1.845.586-2.709 1.013-6.334 3.127-12.556 6.64-17.867 11.34-.715.712-1.46 1.395-2.145 2.136-3.095 3.348-5.395 7.284-6.84 11.607-.136.705-.325 1.402-.405 2.115-.344 3.06.433 5.492 2.532 7.724.411.402.799.829 1.233 1.205.579.501 2.074 1.534 2.676 2.008 1.195.94 4.424 1.982 5.505 3.05.198.317.462.601.594.951.78 2.078-3.17 4.084-4.45 5.44-.36.29-.703.601-1.08.87-.49.347-6.199 5.097 4.957-1.543.449-.266-3.022.527-3.505.723-.871.354-1.897.483-2.81.645-2.758.351-5.723.36-8.426-.401-.522-.148-1.011-.392-1.517-.588-.904-.494-1.627-.852-2.468-1.46-1.675-1.211-3.093-2.774-4.426-4.338-1.294-1.641-2.704-3.203-3.966-4.867-1.138-1.5-1.474-2.151-2.405-3.819-.394-.706-.775-1.42-1.163-2.132-.955-1.806-1.348-2.293-1.862-4.286-.203-.788-.285-1.602-.427-2.403-.423-2.39-.97-4.752-1.313-7.156-.23-2.498-.544-5.01-.595-7.521-.056-2.732.09-2.731.131-5.477.013-.855-.015-1.71-.023-2.563-.013-.814-.046-1.627-.04-2.44.015-2.137.137-2.514.106-4.576-.026-1.656-.198-3.312-.138-4.971-.06-.837-.173-1.67-.222-2.507-.094-1.602.033-3.215-.221-4.81.008-.512.04-1.847.002-2.358-.058-.774-.221-1.097-.254-1.857-.028-.66.065-1.689.11-2.33.151-2.54.962-4.984 1.615-7.43 1.042-2.836 1.89-5.736 3.253-8.445a33.807 33.807 0 0 1 4.147-7.651c.769-1 1.36-1.802 2.194-2.75 1.809-2.053 3.889-3.838 6.018-5.548 3.453-2.644 6.884-5.335 10.582-7.632.367-.237 4.793-3.081 4.876-3.18.499-.592-2.71 1.495-2.073 1.053 2.74-1.902 5.99-2.945 8.945-4.43 6.567-3.042 13.283-5.734 19.926-8.603 2.486-1.107 4.957-2.246 7.445-3.35 5.1-2.264 10.343-4.23 15.258-6.893 1.123-.59 2.242-1.189 3.369-1.77.87-.45 1.765-.85 2.622-1.323a381.208 381.208 0 0 0 7.557-4.278c.597-.347 2.361-1.425 1.743-1.118-3.744 1.862-6.017 3.646-3.935 2.053l5.438-4.117z"/>
    <path style="display:inline;fill:#50225e;fill-opacity:.988235;stroke-width:4;stroke-linecap:round;stroke-linejoin:round;paint-order:stroke markers fill" d="M154.806 261.992c2.43.307 2.147.385 5.462-3.824.367-.466-1.174-.18-1.766-.203-.953-.038-1.908 0-2.861.02-4.203.131-2.158.081-6.135.153-.625-.005-1.252.022-1.877-.014-1.95-.114-1.22-9.72-4.242 3.582-.232 1.018 2.082-.152 3.125-.189 3.774-.135 3.043-.113 6.263.152 1.574 1.083 2.32 1.756 3.92-3.431.242-.787-1.647.04-2.47.022a19.158 19.158 0 0 1-1.726-.112c-.128-.014-.267-.204-.367-.123-1.427 1.16-2.71 2.486-4.065 3.729 1.334-.418 2.712.174 4.05-.01.186-.025-.646-.092-.516-.227 1.097-1.135 2.54-1.895 3.65-3.017.188-.19-.583-.037-.793.129-1.562 1.233-2.956 2.665-4.433 3.998l5.285-3.51c-1.953 1.12-3.939 2.183-5.86 3.358-.28.172.632-.2.93-.342 2.379-1.124 4.836-2.11 7.1-3.452.191-.114-.24-.442-.459-.488-.604-.128-1.235.017-1.852-.001-.678-.02-1.354-.076-2.031-.114-2.07 1.235-4.191 2.39-6.212 3.705-.186.12.435-.086.656-.091.621-.017 1.243.002 1.864.025.76.028 1.57.407 2.278.128 10.233-4.043 8.742-3.81 5.777-3.573-2.116-.05-4.232-.078-6.348-.137-.912-.025-1.89-.445-2.736-.103-2.268.916-4.25 2.43-6.305 3.757-.775.5 7.013-2.378 2.756-.263 1.64-.053 4.45-.16 6.071-.139.856.012 1.711.06 2.564.121.447.032.93.355 1.334.161 1.985-.955 3.734-2.336 5.604-3.499.095-.06-.187.126-.28.189l-5.355 3.634zM108.072 71.704c.011-.181.01-.363.033-.542.098-.741.152-.599.317-1.37.258-1.21.347-2.46.502-3.685.565-3.979 1.29-7.929 1.969-11.888.813-5.074 2.092-10.049 3.422-15.006 1.028-4.573 2.914-8.704 4.872-12.924.34-.536.659-1.087 1.023-1.607.348-.497.755-.95 1.111-1.442.72-.99 1.369-2.153 2.258-3.015.445-.432.993-.745 1.48-1.129.508-.397 1.003-.809 1.504-1.213.67-.757 2.173-2.495 2.918-3.18 1.021-.939 2.201-1.693 3.246-2.607 2.7-2.364.39-.73 3.347-2.625-1.12.84-2.622 1.331-3.358 2.522-.38.615 1.412-.316 2.11-.504 2-.54 1.881-.723 3.91-.929 4.137-.42-.087.394 4.003-.516 3.099-1.317 6.414-2.136 9.796-2.185.687-.01 1.372.067 2.058.1 3.885.701 7.896 1.05 11.645 2.365 2.418.848 3.982 1.78 6.27 2.975 1.225.751 2.498 1.428 3.673 2.255 5.26 3.697 9.469 8.763 12.375 14.486.739 1.456 1.291 3 1.937 4.499 1.989 5.571 3.787 11.265 4.762 17.115.313 1.876.497 3.77.758 5.655.258 1.627.454 2.542.534 4.146.022.453-.035.907-.013 1.36.111 2.215.177.548.384 2.858.03.345-.006.693-.009 1.04.041.608-.569.005-.664.217-.221.493.397 1.218.534 1.642.09.277.131.568.197.852.044.78.529 1.4.726 2.127.232.856-.102.028.271.856l5.906-3.355c-.342-.63.088.212-.28-.807-.249-.685-.825-1.13-.774-1.943-.056-.342-.09-.687-.168-1.024-.043-.185-.133-.356-.192-.536-.02-.06-.076-.129-.047-.185.032-.062.143-.037.188-.09.201-.24.156-.497.173-.79-.393-3.092-.609-6.212-1.315-9.257-.347-1.852-.612-3.72-1.012-5.56-1.252-5.76-3.366-11.42-5.151-17.025-.665-1.515-1.238-3.073-1.995-4.544-.772-1.5-1.66-2.937-2.583-4.348-.937-1.433-1.902-2.855-2.99-4.175-2.883-3.495-6.496-6.287-10.313-8.677-2.286-1.293-3.773-2.266-6.225-3.164-3.69-1.35-7.68-1.685-11.47-2.645-.703-.057-1.404-.167-2.109-.172-.698-.004-1.394.082-2.09.144-2.685.238-5.344.661-7.757 1.937-.634.19-1.247.473-1.902.567-4.088.583-.043-.666-4.057.261-.678.157-1.311.47-1.981.657-5.994 1.672 3.027-1.985-9.633 4.099-2.917 2.071-.534.28-3.327 2.676-1.12.961-2.126 1.653-3.194 2.675-.523.5-.991 1.054-1.492 1.575-.501.521-1.01 1.034-1.516 1.55-.606.49-2.389 1.892-2.938 2.473-.683.722-1.695 2.234-2.272 3.046-.354.498-.738.975-1.067 1.489-.343.534-.631 1.101-.947 1.652-.876 1.939-1.805 3.879-2.555 5.87-.871 2.315-1.48 4.72-2.153 7.095-1.318 4.984-2.566 9.992-3.45 15.074-.76 4-1.483 8.007-2.181 12.018a77.017 77.017 0 0 1-1.169 5.711l6.137-2.975z"/>
    <path style="display:inline;fill:#50225e;fill-opacity:.988235;stroke-width:4;stroke-linecap:round;stroke-linejoin:round;paint-order:stroke markers fill" d="M199.828 71.317c1.17 1.651 3.228 2.431 5.084 3.03 3.287.666 6.692.491 10.009.142 3.184-.614 6.38-1.18 9.55-1.867 2.45-.689 5.009-.827 7.453-1.526 2.855-1.008.46-.112 6.626-3.865l-6.274 2.656c5.785-3.29 7.507-4.062 4.891-2.854-.809.286-1.094.412-1.959.606-1.859.418-3.791.467-5.61 1.082-3.147.734-6.349 1.21-9.504 1.916-3.236.422-6.563.617-9.791.04-1.218-.38-2.064-.733-3.148-1.396-.643-.394-1.186-.705-1.46-1.446l-5.867 3.482zM274.478 78.54c.321.477.088.36-.039.743-.031.095-.007.203-.037.299-.02.07-.128.116-.11.187.043.177.181.316.272.474.654.48.403.217.8.74l5.807-3.432c-.453-.646-.195-.414-.71-.762.103.504.29-1.85.032-1.465l-6.015 3.215zM250.254 73.485c13.862-8.008-1.27.733-1.36.786-.807.483-.892.737-1.574 1.347-.548.49-1.029.827-1.618 1.265-1.982 1.729-6.767 4.39 2.946-1.35l-5.224 4.203c3.283-1.904 5.75-3.076 8.413-5.3.796-.625 1.535-1.34 2.345-1.944.287-.215 1.21-.77.896-.594-.51.285-14.96 8.656 1.529-.864l-6.353 2.45z"/>
    <circle style="display:inline;fill:#50225e;fill-opacity:.988235;stroke:#000;stroke-width:.264583" cx="117.031" cy="122.846" r="1.464"/>
    <path style="display:inline;fill:#50225e;fill-opacity:.988235;stroke-width:4;stroke-linecap:round;stroke-linejoin:round;paint-order:stroke markers fill" d="M167.068 42.943c1.266.708 1.938 2.099 2.574 3.34.879 1.807 1.558 3.698 2.112 5.627.769 2.31.94 4.749 1.086 7.161.205 2.782-.22 5.543-.722 8.27-.369 1.482-.57 3.008-1.024 4.47-.408 1.31-1.03 2.542-1.632 3.768-.816 1.279-1.51 2.68-2.52 3.824-.448.508-.957.96-1.424 1.45-1.038 1.185-2.25 2.182-3.547 3.07-.893.61-6.094 3.658 2.703-1.571-2.13 1.236-4.582 1.508-6.913 2.167-.435.102-.867.222-1.306.306-.421.08-.85.114-1.273.188-1.72.3-3.408.755-5.126 1.073-1.61.09-3.571.306-5.16-.025-1.025-.214-1.777-.635-2.717-1.074-1.337-.616-2.713-1.14-4.096-1.643-.64-.232-1.584-.532-2.194-.84-.373-.188-.716-.429-1.074-.643-1.715-1.279-3.416-2.63-4.727-4.338-.961-1.252-1.197-1.79-1.968-3.169-1.26-2.619-2.347-5.343-2.99-8.185-.417-1.842-.47-2.71-.692-4.581-.454-3.961-.017-7.939.528-11.866.476-2.677 1.172-5.3 1.838-7.934.217-.848.64-1.606 1.105-2.339l-5.109 2.264c-.44.77-.804 1.528-.905 2.426-.65 2.621-1.269 5.26-1.68 7.93-.438 3.952-.844 7.93-.312 11.9.217 1.738.323 2.94.714 4.654.657 2.884 1.743 5.658 2.96 8.345.729 1.314 1.09 2.065 1.98 3.279 1.301 1.777 3.037 3.133 4.704 4.545.367.243.715.518 1.1.73.865.477 1.325.535 2.252.84 1.391.456 2.774.952 4.102 1.57.716.36 1.99 1.046 2.78 1.255.435.116.893.13 1.342.165 1.295.103 2.606.057 3.901-.013 1.269-.212 1.314-.2 2.56-.486.595-.136 1.955-.498 2.55-.602.432-.075.874-.089 1.307-.159.44-.071.874-.176 1.31-.265.505-.148 1.866-.557 2.387-.67.868-.191 1.585-.214 2.439-.474.56-.17 1.585-.665 2.121-.913 3.807-2.16 7.276-3.778 10.16-7.023.423-.439 1.011-1.025 1.393-1.511.943-1.199 1.698-2.554 2.415-3.892.396-.85.775-1.624 1.103-2.506.7-1.885.999-3.886 1.443-5.838.51-2.776.962-5.576.71-8.408-.14-2.455-.325-4.952-1.056-7.311-.548-1.97-1.313-3.857-2.166-5.716-.66-1.342-1.329-2.802-2.56-3.719l-4.786 3.097z"/>
    <path style="display:inline;fill:#50225e;fill-opacity:.988235;stroke-width:4;stroke-linecap:round;stroke-linejoin:round;paint-order:stroke markers fill" d="M119.573 41.035c2.198.99 4.446 1.832 6.773 2.462 4.377.974 8.858 1.4 13.316 1.824 4.053.364 8.123.55 12.19.65 2.92-.005 5.814-.424 8.7-.813 2.243-.236 4.441-.581 6.59-1.26.3-.097.626-.14.904-.292.742-.408 24.138-13.996 1.263-.674l8.546-6.664c-3.282 1.833-6.568 3.66-9.846 5.499-2.828 1.587 5.683-3.127 8.485-4.76.28-.162-.602.243-.903.364-2.15.622-4.263 1.362-6.535 1.412-2.872.479-5.76.833-8.668 1.006-4.12-.024-8.244-.086-12.354-.433-4.349-.393-8.724-.864-12.982-1.85a31.472 31.472 0 0 1-6.435-2.422l-9.044 5.95zM138.994 56.21l-4.641 2.958c.035-.039.06-.092.107-.116.045-.023.115.02.15-.016.101-.106-.24-.132-.393-.078-.451.08-.382.509-.563.823-.064.112-.18.185-.263.282-.419.483-.277.31-.553 1-.086.29-.157.584-.259.868-.725 2.024-.005-.332-.701 1.797-.304.929-.519 1.878-.711 2.835-.476 2.278.186 3.689 1.337 5.608.1.135 1.382 1.902 1.524 2.065 1.17 1.337 2.662 2.457 4.129 3.442 1.421.677 2.84 1.403 4.371 1.8.859.221 1.731.387 2.595.588 1.55.215 3.175.147 4.645-.438.598-.239 1.771-.888 2.325-1.185 1.923-1.13 3.893-2.184 5.769-3.392.34-.219 1.7-1.731 1.959-2 .795-.826 1.3-1.181 1.879-2.201.254-.447.404-.946.606-1.419.532-1.39 1.165-2.755 1.118-4.283-.053-1.71-.806-3.111-1.608-4.566-1.572-2.705-3.583-4.084-6.454-5.15-1.14-.42-2.32-.657-3.514-.854l-4.623 3.274c1.227.1 2.452.192 3.614.647 2.823.859 4.826 2.133 6.37 4.725.723 1.37 1.432 2.696 1.414 4.299-.017 1.464-.684 2.793-1.187 4.128-.222.44-.4.903-.666 1.317-.637.991-2.042 2.354-2.918 3.17-.327.303-1.427 1.045-1.02.865 1.214-.535 2.313-1.298 3.47-1.947-1.043.565-2.155 1.348-3.31 1.67-1.004.28-2.385.293-3.422.261-1.207-.277-2.494-.473-3.668-.875-1.088-.373-2.09-.987-3.167-1.385-.335-.193-.685-.36-1.004-.579-1.809-1.236-3.32-2.875-4.52-4.695-1.025-1.854-1.543-3.164-1.075-5.298a24.939 24.939 0 0 1 1.797-5.393c.457-.728.922-1.455 1.536-2.05.153-.45.084-.854-.39-1.038-.09-.035-.189-.153-.273-.104-1.69.979-3.3 2.087-4.95 3.131l5.138-2.491z"/>
    <path style="display:inline;fill:#50225e;fill-opacity:.988235;stroke-width:4;stroke-linecap:round;stroke-linejoin:round;paint-order:stroke markers fill" d="M146.04 57.853a8.158 8.158 0 0 1 1.337 2.793c.182.725.19 1.598.228 2.335.129 1.1.258 1.85.23 2.956-.018.775-.185 1.382-.227 2.145-.03.544.023 1.102.06 1.644-.07.667-.023.354-.135.94l5.07-2.505c.04-.63.033-.295.007-1.002-.114-1.264.024-2.423-.005-3.68-.011-.49-.05-.978-.08-1.467-.03-.507-.067-1.013-.1-1.52-.024-.426-.025-.855-.07-1.28-.167-1.533-.72-3.06-1.495-4.387l-4.82 3.028z"/>
    <path style="display:inline;fill:#50225e;fill-opacity:.988235;stroke-width:4;stroke-linecap:round;stroke-linejoin:round;paint-order:stroke markers fill" d="M140.495 56.021c-1.985-1.028 1.599-2.135-5.073 3.001-.11.086.167.226.254.336.628.796.471.576 1.388 1.522 2.413 2.568 4.699 5.256 7.007 7.919l4.51-2.752c-.432-.403-.886-.781-1.294-1.207-2.023-2.111-3.697-4.528-5.592-6.749-.426-.57-.78-.992-1.123-1.58-.063-.11-.053-.396-.164-.339-1.699.877-3.275 1.972-4.912 2.957.107-.08.037-.054.222.035l4.777-3.143zM249.861 76.87c-1.247-.644-2.639-.996-3.795-1.82-1.276-.909-2.3-2.32-3.344-3.47-.304-.424-.648-.823-.912-1.274-.259-.445-.441-.93-.649-1.4-.949-2.152-1.374-3.645-1.72-5.963-.213-1.556-.181-3.128-.107-4.691.05-1.035.032-1.612.405-2.584.158-.41.403-.782.604-1.174.967-2.315 1.986-4.614 2.72-7.016 1.078-2.033 2.017-3.369 3.984-4.6-1.723 1.012-3.46 2-5.168 3.036-.223.135.575-.27.775-.103.219.184 1.33 2.31 1.499 2.596.21.389.44.767.63 1.166.8 1.68.273 1.025 1.295 2.712.005.007 1.722 2.52 1.754 2.574.229.39.398.811.598 1.217.554 1.264 1.57 2.203 2.375 3.288.577.778 1.016 1.683 1.535 2.502.686.71.644 1.644.949 2.509.28.797.234.238.226.92-.09.542.018 1.086-.221 1.6-.09.194-.239.358-.337.549-.316.616-.34.811-.536 1.472-.398.95-1.11 1.708-1.669 2.563-.213.327-.383.684-.612 1.001-.418.581-1.199 1.388-1.678 1.905-.282.306-.534.64-.844.917-1.018.906-7.13 4.394 3.439-1.937l-5.094 4.092c3.353-1.925 6.194-2.868 8.517-5.6a27.724 27.724 0 0 0 2.296-2.998c.356-.53 1.002-1.379 1.315-1.94.151-.27.254-.565.38-.847.26-.712.677-1.383.895-2.106.176-.582.08-1.211.141-1.805-.216-1.137.038-.06-.312-1.006-.338-.913-.375-1.908-1.128-2.632-.549-.841-1.017-1.767-1.647-2.551-.816-1.014-1.82-1.883-2.338-3.12-.223-.424-.42-.863-.67-1.273-.338-.558-1.391-1.941-1.724-2.5-.879-1.48-.542-1.208-1.244-2.749-.186-.408-.415-.794-.623-1.191-.2-.364-.416-.719-.599-1.091-.185-.377-.63-1.58-.928-1.945-1.736-2.125-9.912 4.29-7.435 3.21-1.824 1.41-2.812 2.841-3.719 4.96-.755 2.362-1.792 4.626-2.725 6.921-.187.437-.42.857-.56 1.31-.31 1-.273 1.64-.293 2.672-.031 1.597-.046 3.2.17 4.787.369 2.35.852 3.94 1.817 6.12.224.506.427 1.026.71 1.503.278.471.643.885.964 1.328 1.098 1.208 2.13 2.652 3.437 3.647 1.05.799 2.32 1.25 3.454 1.903l5.747-3.594z"/>
    <path style="display:inline;fill:#50225e;fill-opacity:.988235;stroke-width:4;stroke-linecap:round;stroke-linejoin:round;paint-order:stroke markers fill" d="M253.299 72.268c1.373 1.292 2.963 2.262 4.59 3.195a17.815 17.815 0 0 0 6.77 2.3c5.224.192 6.457-1.457 11.52-4.458 1.483-1.035 1.287-1.64 1.646-3.212.608-2.66.005.67.48-2.155.046-1.231.147-2.463.14-3.696-.002-.475-.057-.95-.044-1.425.03-1.084.171-1.659.358-2.717-.014-.443.013-.888-.042-1.327-.056-.454-.2-.892-.288-1.34-.119-.6-.323-1.925-.47-2.518-.12-.485-.324-.949-.423-1.439-.107-.533-.13-1.08-.195-1.62.05-1.347.108-1.77.005-3.09-.032-.406-.136-.805-.153-1.211-.015-.338.023-.676.057-1.012.032-.302.154-.596.14-.9-.012-.282-.144-.546-.217-.819-.674-1.003-1.56-1.335-2.707-.701-2.206 1.218-4.362 2.524-6.542 3.786-1.436.982-1.953 2.576-2.763 4.027-1.229 2.2-.511.775-1.591 3.082-.966 2.37-1.798 5.031-3.106 7.24-.218.369-.487.704-.73 1.055-.264.32-.532.637-.792.96-.623.777-.75 1.016-1.412 1.72-.698.74-1.342 1.39-1.926 2.229l-.666.624 6.13-2.549.63-.708c1.3-1.666 2.868-3.115 4.02-4.904 1.575-2.603 2.56-5.505 3.69-8.319 1.114-2.26.37-.854 1.677-3.076.845-1.435 1.505-2.907 3.014-3.776-1.626.916-3.256 1.827-4.88 2.75-.211.12.425-.243.648-.344.343-.156.755-.336 1.116-.13.11.062.203.153.304.23.051.188.144.371.154.567.147 3.013-.382-1.332-.056 2.035.036.377.149.743.19 1.12.128 1.163.083 1.904.075 3.097.063.577.092 1.16.19 1.732.082.482.244.947.35 1.424.361 1.628.735 3.299.719 4.97-.379 2.609-.25 5.233-.524 7.854-.365 1.777-.05.378-.527 2.161-.145.545-.212 1.124-.547 1.602-.325.463-.908.856-1.342 1.19l5.097-2.83c-.267.136-.517.313-.8.41-1.342.459-2.868.49-4.262.614a15.717 15.717 0 0 1-6.598-2.093c-1.573-.877-3.102-1.789-4.299-3.164l-5.808 3.56zM277.251 79.216c-2.539-.793-.815-.352-6.253 3.609-.148.107.056.363.051.545-.022.855-.192 1.72-.233 2.579-.168 2.066-.12 4.104.214 6.15.494 1.56 1.153 3.593 2.345 4.769.309.305.681.538 1.022.806.945.653 1.744 1.5 2.684 2.158.692.486 1.458.82 2.225 1.165 3.482 1.611 6.987-2.371 9.058-5.027.261-.407.507-.824.785-1.22 1.043-1.487 2.217-2.882 3.239-4.386 1.324-2.074.65-1.052 2.022-3.067.305-.477.63-.942.917-1.43.266-.454.485-.934.743-1.393.406-.721 1.4-2.267 1.675-3.05.367-1.045.346-2.005.402-3.083.061-.847.37-1.654.468-2.495.154-1.32.058-3.222-.103-4.559-.205-.447-.35-.937-.762-1.253-1.164-.894-3.44.04-4.63.416-3.663 1.464-7.282 3.012-10.81 4.777l-6.966 4.036 5.986-2.31-4.01 2.267c1.682-.847 3.349-1.724 5.076-2.477 2.344-1.022 1.69-.668 4.023-1.629.535-.22 1.062-.46 1.593-.69.709-.257 3.192-1.177 3.983-.873.358.138.48.533.639.829.335 2.332.123 4.582-.305 6.889-.056 1.108-.003 1.705-.426 2.787-.211.54-.532 1.033-.818 1.539a96.752 96.752 0 0 1-2.53 4.26c-1.982 2.959-4.025 5.862-6.214 8.674-.285.32-.555.654-.854.961-.244.25-1.085.862-.771.709 1.843-.899 3.588-1.988 5.393-2.962.12-.064-.201.204-.334.232-.146.032-.79-.179-.894-.21-2.02-.697-3.326-1.662-4.935-3.076-.3-.235-.624-.44-.898-.704-1.203-1.159-1.695-2.937-2.164-4.48-.305-2-.337-3.995-.152-6.012.135-1.455.025-.516.242-1.908.04-.253.07-.507.111-.759.023-.141.212-.485.084-.421-4.14 2.056-7.612 4.581-5.58 3.11l5.662-3.793z"/>
    <path style="display:inline;fill:#50225e;fill-opacity:.988235;stroke-width:4;stroke-linecap:round;stroke-linejoin:round;paint-order:stroke markers fill" d="m284.68 100.67-.39-.314c-.13-.105-.51-.395-.347-.363.084.017.292.086.22.133-5.437 3.546-7.92 3.226-5.244 3.476.216.079.439.14.647.236.71.328 1.221.701 1.893 1.12 1.242.774 2.482 1.542 3.704 2.348 2.112 1.26 3.968 2.833 5.706 4.56.727 1.092 1.553 2.1 2.269 3.197.11.162.26.304.33.487a.522.522 0 0 1-.003.366c-.023.06-.831 1.095-.863 1.124-.154.14-.347.23-.52.345-1.88 1.32-4.984 3.456 3.778-2.068.307-.194-.664.298-1.005.423-.871.319-1.453.44-2.356.67-2.67.708-5.418.805-8.16.85-2.216.029-4.427-.127-6.629-.352-.778-.175-1.845-.244-2.392-.922-.253-.313-.42-.688-.628-1.033-.08-.189-.201-.365-.238-.566-.049-.27.113-1.085.14-1.304.105-.842.227-1.639.414-2.469.345-2.208 1.567-4.067 2.952-5.765.31-.32.614-.648.931-.961.566-.56 1.188-1.144 1.849-1.594.338-.23 1.41-.825 1.059-.617-4.848 2.854-6.287 3.527-3.879 2.357l5.2-4.14c-4.13 1.901-8.206 4.034-11.16 7.523-1.395 1.82-2.568 3.786-2.94 6.087-.242 1.117-.697 3.068-.419 4.174.056.224.19.422.284.632.05.087.639 1.13.693 1.202.635.837 1.77 1.018 2.728 1.255 2.251.153 4.497.41 6.758.331 2.763.018 5.521-.13 8.231-.72 1.505-.326.922-.175 2.36-.582.344-.097.716-.126 1.03-.296 2.739-1.484 5.268-2.77 7.623-4.636.874-.932 1.588-2.023.655-3.199-.724-1.157-1.672-2.144-2.458-3.26-1.805-1.735-3.724-3.305-5.874-4.603-1.21-.799-2.461-1.541-3.653-2.367-.86-.597-.99-.782-1.828-1.3-.209-.13-.431-.234-.647-.35-.16-.078-.32-.308-.48-.23-2.138 1.038-7.467 2.458-5.798 4.15.094.095.221.15.325.235.112.09.215.193.323.289l5.808-3.56z"/>
    <circle style="fill:#50225e;fill-opacity:.988235;stroke:#000;stroke-width:.264583" cx="98.561" cy="74.377" r=".919"/>
    <circle style="fill:#50225e;fill-opacity:.988235;stroke:#000;stroke-width:.264583" cx="98.561" cy="74.377" r=".919"/>
    <circle style="fill:#50225e;fill-opacity:.988235;stroke:#000;stroke-width:.264583" cx="101.755" cy="72.552" r=".919"/>
    <circle style="fill:#50225e;fill-opacity:.988235;stroke:#000;stroke-width:.264583" cx="101.755" cy="72.552" r=".919"/>
    <path style="display:inline;fill:#50225e;fill-opacity:.988235;stroke-width:4;stroke-linecap:round;stroke-linejoin:round;paint-order:stroke markers fill" d="M270.69 75.45c.96.256 1.465 1.034 2.1 1.729.967 1.058.298.257 1.108 1.264l.628.641 5.68-3.469-.584-.607c-1.987-2.327 1.03 1.18-1.141-1.257-.653-.733-1.126-1.675-2.086-2.054l-5.705 3.754z"/>
  </g>
  <g style="display:inline">
    <path style="fill:#50225e;fill-opacity:.988235;stroke-width:4;stroke-linecap:round;stroke-linejoin:round;paint-order:stroke markers fill" d="M111.818 169.119c.221-.135.443-.267.663-.404.68-.427 1.503-.971 2.179-1.38.484-.293 1.947-1.152 1.464-.857-2.362 1.443-3.481 1.983-.693.537 4.17-2.15 8.251-4.463 12.214-6.974.286-.187.57-.377.859-.562 2.89-1.853-5.077 2.862-2.627 1.52l3.908-3.153c-2.234 1.256-4.502 2.462-6.604 3.93-1.246.795-5.452 3.39.42-.107.46-.274-.942.516-1.415.769-5.81 3.112 2.756-1.505-3.136 1.675-4.088 2.092-8.044 4.433-11.937 6.865l4.705-1.86zM126.853 161.434a679.792 679.792 0 0 0-1.807 10.154c-.523 3.119-.936 6.262-1.643 9.348-.27 1.174-.611 2.33-.939 3.489-.533 1.519-.962 3.063-1.161 4.66l4.415-2.195c.104-1.548.548-3.014.991-4.495.977-4.219 1.722-8.475 2.347-12.76.545-2.788.383-2.013.941-4.67.343-1.63.654-3.293 1.156-4.886.08-.254.191-.497.287-.745l-4.587 2.1zM134.692 199.061c.288.106-.72.488-.531.38 1.437-.817 2.908-1.573 4.338-2.402a.433.433 0 0 0 .164-.207c.136-.314.23-.646.346-.968l.696-1.58c2.008-3.722 4.316-7.282 6.766-10.728l-4.356 1.902c-2.276 3.545-4.54 7.102-6.643 10.753-.191.38-1.174 2.211-1.311 2.849-.053.246-.19.827.05.752 2.177-.674 3.908-1.185 5.166-2.77l-4.685 2.019zM145.726 186.076c1.323 1.888 2.298 4 3.335 6.053 1.363 2.543 2.398 5.247 3.374 7.959.73 2.302 1.468 4.602 2.242 6.89.538 1.195.7 2.505 1.08 3.746l.14.37 4.42-2.446c-.04-.119-.08-.237-.118-.355-.372-1.235-.869-2.431-1.291-3.65-.796-2.286-1.523-4.593-2.263-6.897-1.076-2.686-2.106-5.4-3.484-7.95-1.027-2.128-2.056-4.257-3.092-6.381l-4.343 2.661zM163.387 189.238c1.017 2.519 1.829 5.113 2.814 7.644.435 1.117.9 2.222 1.35 3.333l1.328 3.436 3.604-2.006c-1.839-4.855-3.667-9.733-4.673-14.843l-4.423 2.436z"/>
    <path style="fill:#50225e;fill-opacity:.988235;stroke-width:4;stroke-linecap:round;stroke-linejoin:round;paint-order:stroke markers fill" d="M169.138 203.068c.969 2.53 2.117 4.988 3.172 7.483.87 2.018 1.604 4.09 2.387 6.141l4.31-2.438c-1.063-1.895-1.712-4.012-2.668-5.96-1.048-2.535-2.187-5.06-2.763-7.753l-4.438 2.527zM165.322 188.128c.19.025.385.028.571.075.76.189 2.205.715 2.851.954 2.315.855 4.524 1.88 6.753 2.936 3.142 1.378 6.138 3.038 9.095 4.769.942.551 1.866 1.134 2.817 1.67 2.118 1.192 3.193 1.684 5.338 2.736 1.78.86 3.53 1.77 5.241 2.758l3.967-2.601c-1.853-.864-3.722-1.694-5.575-2.558-2.418-1.108-3.026-1.338-5.416-2.642-3.95-2.155-7.74-4.608-11.815-6.537-1.774-.92-2.845-1.506-4.63-2.322-1.679-.768-3.408-1.43-5.07-2.236l-4.127 2.998zM217.074 189.512c-3.245-1.506-6.328-3.361-9.43-5.143-2.318-1.335-4.535-2.836-6.812-4.237-2.352-1.446-4.758-2.812-7.125-4.236-4.562-2.688-9.216-5.219-13.692-8.05-1.495-.93-3.005-1.835-4.495-2.773l-3.998 2.598a87.71 87.71 0 0 1 4.705 2.619 216.885 216.885 0 0 0 6.456 3.778c.718.4 4.147 2.285 4.787 2.657.862.501 1.705 1.034 2.557 1.55 4.64 2.824 9.327 5.57 13.901 8.502a437.044 437.044 0 0 1 8.923 5.514l4.223-2.78zM174.187 161.589c-1.64-.51-.476-.184-3.931 2.898-.263.235.644-.283.975-.403a40.85 40.85 0 0 1 1.92-.64c2.023-.619 4.362-1.218 6.382-1.756 7.478-2.067 15.13-3.355 22.729-4.87l3.488-2.651c-1.863.437-4.498 1.065-6.311 1.439-5.546 1.144-11.132 2.102-16.61 3.56-.945.226-4.834 1.151-6.018 1.451-.578.146-1.153.304-1.728.462-.286.079-.607.085-.855.249-1.498.988-2.909 2.103-4.344 3.182-.031.024.08-.004.12-.006l4.183-2.916zM186.925 133.628c-.593.372-1.19.737-1.78 1.116-1.662 1.07-4.725 3.115-6.309 4.115-3.274 2.069-6.621 4.029-9.933 6.037-8.066 4.661 2.911-1.616-1.63.89l-3.709 2.999c3.087-1.802 6.217-3.528 9.258-5.405 3.24-1.995 6.507-3.946 9.729-5.968 4.646-2.915 2.388-1.591 6.79-4.29.74-.454 1.49-.89 2.236-1.336l-4.652 1.842z"/>
    <path style="fill:#50225e;fill-opacity:.988235;stroke-width:4;stroke-linecap:round;stroke-linejoin:round;paint-order:stroke markers fill" d="M189.1 131.916c-.155.04-.317.062-.465.123-.281.118-.553.26-.817.413-1.723 1.001-3.431 2.028-5.144 3.048-1.231.734-2.451 1.488-3.682 2.224-3.234 1.875-6.348 3.94-9.527 5.906l-1.643 1.022c-.524.343-1.042.694-1.57 1.028-.49.309-1.983 1.187-1.482.9 5.548-3.179 2.08-1.26.715-.666-.54.338-1.232.351-1.799.61-.147.067.16.282.253.414-1.44.868-3.484 4.063-4.319 2.604-1.533-2.68 6.103-2.352 3.595-3.215l-4.129 3.023c.173-.139.285.008.33-.02 8.853-5.606 2.734-1.916-.146-.23.076.151.127.317.227.453.162.22 1.951-.545 2.167-.617 4.293-1.836 8.153-4.513 12.102-6.973 3.199-1.99 6.351-4.052 9.618-5.932 1.337-.792 1.362-.801 2.63-1.572.389-.236 1.565-.926 1.164-.711-1.075.575-2.118 1.21-3.187 1.795-.23.126.437-.291.668-.417.118-.064.25-.101.374-.152l4.067-3.058z"/>
    <path style="fill:#50225e;fill-opacity:.988235;stroke-width:4;stroke-linecap:round;stroke-linejoin:round;paint-order:stroke markers fill" d="M159.174 117.069c.03.174.072.346.09.521.066.673.036 1.302.034 1.982-.005 1.938-.057 3.871-.103 5.808.012 2.4-.173 4.79-.316 7.183-.133 2.24-.21 4.474-.415 6.71-.218 3.192-.66 6.358-.808 9.554-.027 1.225-.309 2.424-.243 3.65l-.013.515 4.469-2.28-.02-.491c.035-.512.026-1.03.072-1.54.061-.683.19-1.36.057-2.045-.02-3.147.398-6.289.602-9.425.202-4.631.47-9.26.688-13.89.045-1.085.118-3.004.19-4.107.096-1.514.312-3.03.213-4.55l-4.497 2.405z"/>
    <path style="fill:#50225e;fill-opacity:.988235;stroke-width:4;stroke-linecap:round;stroke-linejoin:round;paint-order:stroke markers fill" d="M168.298 145.217c-1.788.729-3.03 1.213-4.937 2.757-.217.175.417.616.671.501 2.833-1.282 4.369-2.536 6.534-4.195 4.02-2.81 7.856-5.87 11.787-8.8 2.756-1.99 5.324-4.22 8.124-6.148.159-.094.645-.354.475-.283-1.719.72-3.585 1.205-5.103 2.286-1.215.865-2.343 1.878-3.495 2.822-3.4 2.7-6.79 5.414-10.251 8.034-2.712 2.152-5.475 4.237-8.213 6.355a14.858 14.858 0 0 0-1.865 1.643c-.09.094-.201.172-.28.277-.036.048-.113.194-.057.171 1.614-.644 3.193-1.374 4.79-2.06 3.179-2.428 6.49-4.674 9.72-7.034l2.481-1.938-3.968 1.586-2.504 1.931c-3.47 2.496-6.996 4.912-10.494 7.368 1.564-.657 3.47-.79 4.695-1.963.616-.59 1.148-1.268 1.878-1.736 2.702-2.07 5.372-4.182 8.047-6.287 3.464-2.666 6.894-5.375 10.328-8.079 1.591-1.277 1.252-1.021 2.83-2.223.33-.252.682-.477.995-.749.164-.142.634-.555.43-.486-3.888 1.312-3.368.973-4.985 2.16-2.641 1.948-5.116 4.112-7.784 6.026-3.93 2.995-7.813 6.055-11.899 8.841-.52.374-2.158 1.359-1.563 1.121 1.168-.466 2.102-1.453 3.305-1.816.252-.076.352.615.144.776-4.494 3.483-5.835 2.99-3.842 2.292l4.006-3.15zM138.962 111.461c-1.023.498.099-.598-.05-.513-1.475.836-2.983 1.623-4.391 2.567-.096.063.03.227.052.34.088.457.194.91.278 1.367.13.706.243 1.415.365 2.122.143.972.305 1.94.43 2.914.215 1.68.646 5.926.804 7.526.198 2.01.59 6.09.728 8.1.086 1.247.13 2.497.195 3.747.065 2.605.144 5.21.213 7.815l4.071-2.104c-.226-2.532-.449-5.065-.633-7.601-.578-7.505-1.295-14.999-1.784-22.51-.06-.74-.132-1.477-.18-2.216-.033-.502-.021-1.006-.063-1.507-.02-.242.102-.803-.125-.718-1.607.601-3.053 1.574-4.524 2.457-.197.118.63.643.159.668l4.455-2.454z"/>
    <path style="fill:#50225e;fill-opacity:.988235;stroke-width:4;stroke-linecap:round;stroke-linejoin:round;paint-order:stroke markers fill" d="M116.647 118.604c-1.78-1.873.31-3.048-5.034 1.658-.213.188.454.338.677.513.46.362.912.73 1.369 1.096.574.535 1.163 1.053 1.721 1.604.284.281 3.718 3.88 3.886 4.057a222.866 222.866 0 0 1 6.19 6.757c3.229 3.483 6.003 7.343 9.13 10.91.994.966 1.912 2.004 2.879 2.995.45.462.828.862 1.191 1.4.302.673.924 1.072 1.365 1.631l4.352-2.638c-.496-.484-1.065-.894-1.437-1.492-.233-.375-.495-.861-.833-1.164-.391-.351-1.002-.414-1.275-.928-.327-.295-1.977-1.971-2.238-2.235-3.331-3.401-6.205-7.22-9.43-10.72-3.816-4.235-7.703-8.406-11.523-12.637-.382-.41-.772-.813-1.148-1.228-.169-.186-.253-.667-.485-.574-11.118 4.443-5.29 1.215-4.266 2.734.201.3.32.65.566.922l4.343-2.661z"/>
    <circle style="fill:#50225e;stroke:#000;stroke-width:.264583" cx="123.168" cy="154.216" r=".687"/>
    <path style="fill:#50225e;fill-opacity:.988235;stroke-width:4;stroke-linecap:round;stroke-linejoin:round;paint-order:stroke markers fill" d="M105.523 134.005c-.128-.224-.302-.525-.27-.803.006-.043.1-.138.064-.115-4.33 2.713-5.639 2.615-3.49 2.611.317.1.639.183.95.298 1.804.67 3.548 1.513 5.291 2.323 3.426 1.59 1.596.7 5.152 2.507 4.136 2.326 8.308 4.585 12.447 6.904l1.157.741 3.998-2.59-1.266-.69c-4.23-2.264-8.566-4.33-12.725-6.73-3.593-1.956-7.24-3.807-10.909-5.613-.206-.081-.42-.34-.62-.244-4.002 1.937-5.24 1.426-4.229 3.886l4.45-2.485z"/>
    <path style="fill:#50225e;fill-opacity:.988235;stroke-width:4;stroke-linecap:round;stroke-linejoin:round;paint-order:stroke markers fill" d="M126.797 149.93c1.502-.886 3.029-1.732 4.508-2.657.31-.194-.378-.743-.557-.797-.625-.186-1.228-.037-1.867.02-.719.11-1.439.212-2.155.332-3.894.657-1.702.337-5.882 1.13-3.637.689-7.297 1.259-10.942 1.902l-3.329 2.512c1.167-.223 2.33-.462 3.5-.667 5.314-.93 2.2-.288 7.362-1.17 3.144-.536 2.655-.574 5.62-.967.644-.085 1.291-.133 1.937-.2.353-.023.706-.05 1.06-.07.158-.009.316-.02.474-.012.07.003.156.094.203.043.052-.057-.066-.31-.165-.158l4.22-2.431-3.987 3.19zM33.676 165.082c.255.836.319 1.714.534 2.559.14.551.338 1.074.527 1.61.518 1.595 1.452 3.025 2.867 3.966.342.229.718.402 1.077.603 2.607 1.307 5.368.81 8.064.114 2.845-.961 5.366-2.582 7.887-4.213.391-.253.729-.59 1.02-.954.683-.854.986-1.819 1.393-2.814.842-2.428 1.348-5.157 1.047-7.738-.085-.731-.296-1.442-.445-2.163l-4.028 2.15c.125.702.31 1.397.374 2.108.233 2.559-.277 5.241-1.232 7.606-.508 1.067-.744 1.785-1.544 2.657-.308.337-1.47 1.049-1.045.883 1.038-.404 1.956-1.068 2.926-1.615.822-.463-3.336 1.872-2.567 1.188-2.576.724-5.254 1.343-7.794.146-.336-.183-.689-.338-1.008-.549-1.34-.884-2.213-2.243-2.671-3.758-.435-1.333-.75-2.696-.842-4.1l-4.54 2.314zM61.52 163.878c.004.185-.038.377.009.556.614 2.374 3.749 3.058 5.768 3.154 1.177.056 2.35-.16 3.526-.24 4.82-2.407 1.961-.737 8.142-5.685l-4.071 1.74c3.093-.2 2.636-.475-.68 1.446-1.112.081-2.222.31-3.335.244-.907-.053-1.807-.283-2.66-.595-.829-.302-2.136-1.233-2.165-2.294-.003-.13.088-.245.133-.368l-4.666 2.042z"/>
    <path style="fill:#50225e;fill-opacity:.988235;stroke-width:4;stroke-linecap:round;stroke-linejoin:round;paint-order:stroke markers fill" d="M75.276 153.164c1.038 1.278 1.916 2.192 2.357 3.874.175.666.348 1.35.33 2.038-.022.765-.299 1.502-.448 2.253l-1.124 2.354 4.028-1.834 1.151-2.49c.148-.808.416-1.602.443-2.422.037-1.117-.42-2.882-.86-3.93-.37-.881-1.018-1.531-1.446-2.366l-4.43 2.523zM37.72 181.438c.008.16-.009.322.025.478.137.625.305.652.469 1.282.196.757.202 1.615.297 2.388.128.832-.027 1.657-.094 2.485-.021.267-.011.538-.059.802-.08.445-.386 1.226-.535 1.636-.106.288-.177.592-.319.865-.411.793-1.859 2.445-2.574 2.992-.277.21-.59.367-.886.55 6.663-3.751 3.018-1.69 1.404-1.123-.947.333-1.886.517-2.878.646-.954.012-.5.028-1.363-.035l-4.064 2.905c.944.076.446.053 1.493.056 4.064-.396 6.27-1.998 9.95-4.23.29-.212.596-.403.868-.636.446-.383.972-1.008 1.34-1.466.637-.793 1.224-1.603 1.483-2.606.233-.68.397-1.058.509-1.768.173-1.101.155-2.257.095-3.364-.094-.828-.118-1.693-.31-2.506-.068-.293-.303-.815-.322-1.148-.009-.15.038-.297.057-.446l-4.587 2.243zM34.499 200.49c-.06-.03-.227-.136-.177-.092 1.39 1.232 2.636-1.78-3.57 2.622-.172.122.413-.107.623-.095.62.037 1.012.327 1.551.61 1.939 1.296 3.073 3.387 4.037 5.451.537 1.434 1.101 3.12.615 4.662-.069.22-.2.414-.3.62-.468.599-.973 1.209-1.6 1.653-.238.17-1.011.593-.76.443 1.148-.685 2.298-1.364 3.447-2.045l-3.851 3.082c2.61-1.476 5.695-2.533 7.278-5.22.078-.242.184-.476.236-.724.344-1.653-.28-3.336-.87-4.847-1.017-2.153-2.144-4.314-4.118-5.744-.526-.338-1.019-.719-1.634-.887-1.869-.511-6.229 1.209-5.38 3.194.03.072.128.09.192.134l4.28-2.817zM57.392 157.44c-.272-.974-.318-1.988-.596-2.962-.103-.361-.458-1.367-.587-1.74-.226-.804-.62-1.541-.998-2.28l-4.293 2.453c.378.717.713 1.447.976 2.216.548 1.49.926 3.035.948 4.632l4.55-2.318z"/>
    <path style="fill:#50225e;fill-opacity:.988235;stroke-width:4;stroke-linecap:round;stroke-linejoin:round;paint-order:stroke markers fill" d="M56.928 153.917c-.689-1.02-1.211-2.132-1.816-3.2-.52-1.049-1.249-1.942-2.135-2.7-.515-.313-1.075-.842-1.719-.77-.588-.092-1.12-.305-1.668-.52-2.124-.538-3.307 1.22-5.489 2.467-.088.05-.3.27-.211.22 1.375-.78 2.722-1.61 4.083-2.415-1.902.669-.573.186-4.896 2.687-.1.058-.355.294-.254.237 5.46-3.085 5.27-2.981 3.674-2.191l-3.98 3.146c2.032-.75.322-.097 5.022-2.839.1-.059.396-.245.294-.189-4.32 2.366-5.752 2.428-3.867 2.29 1.55-.877 3.1-1.75 4.647-2.63 2.035-1.158-6.606 2.59-3.215 2.092.453.064.564.278.95.433.137.055.299-.009.442.026.096.023.185.069.278.103.62.26.237-.138.681.02.338.12.626.408.971.517.904.62 1.54 1.566 2.047 2.525.315.529.58 1.072.872 1.613.196.362.445.695.633 1.061.075.146.123.303.185.454l4.47-2.437zM37.05 158.354c.117-.227.185-.487.316-.708.025-.041.137-.132.094-.11-4.602 2.41-4.637.723-4.497 2.7.2 1.02.418 2.04.557 3.072.047.35.058.706.111 1.056.117.779.294 1.548.44 2.322.143 1.432.772 2.74 1.154 4.11.266.954.002.357.29.944 1.521-.873 3.112-1.637 4.566-2.619.123-.083-.016-.297-.033-.444a12.76 12.76 0 0 0-.102-.736c-.204-1.177-.484-2.333-.676-3.514-.225-1.85-.132-.934-.282-2.746l-4.255 2.218c.185 1.819.088.894.292 2.774.172 1.176.439 2.364.507 3.553.014.242.01.486-.008.728-.009.118-.18.393-.072.347 1.52-.65 2.958-1.477 4.437-2.216-.378-.039-.082.034-.342-.685-.473-1.314-1.064-2.585-1.193-4.002a51.443 51.443 0 0 1-.902-6.505c-.019-.17.105-.572-.057-.512-6.317 2.33-3.56.913-5.046 2.998l4.7-2.025z"/>
    <circle style="fill:#50225e;stroke:#000;stroke-width:.264583" cx="72.918" cy="166.377" r=".689"/>
    <circle style="fill:#50225e;stroke:#000;stroke-width:.264583" cx="72.918" cy="166.377" r=".689"/>
    <path style="fill:#50225e;fill-opacity:.988235;stroke-width:4;stroke-linecap:round;stroke-linejoin:round;paint-order:stroke markers fill" d="M74.792 165.54c1.84-1.317 3.516-2.845 5.15-4.409 1.412-1.272 2.737-2.637 3.902-4.139.613-1.934.25-.566-4.808 1.852-.159.075-.237.26-.35.395a31.4 31.4 0 0 0-.513.63c-.22.275-.435.554-.653.831l-.739.92c-.957 1.12-1.824 2.338-2.94 3.312-.492.43-1.028.805-1.538 1.212-.222.192-.453.374-.666.575-.12.112-.275.208-.33.361-.114.31.398.699.646.578 3.92-1.91 3.79-1.896 5.806-3.712 1.732-1.515 3.105-3.368 4.238-5.359.095-.127.426-.454.284-.383-1.497.757-2.95 1.603-4.392 2.46-.093.054-.145.163-.189.261-.096.217-.133.458-.227.676-.294.684-.562 1.022-.981 1.658-.998 1.462-2.409 2.502-3.871 3.456-.042.276-.571.213-.661.467-.076.214.293.59.41.633.124.044.272-.01.385-.074 1.635-.927 3.228-1.925 4.842-2.887 1.726-1.027 2.921-2.632 4.033-4.266.777-1.308.974-2.843 1.118-4.335-.128-3.156-.517-1.344-4.511 1.108.173.235.121.717.125.98.012.853-.103 1.678-.213 2.524-.063.316-.098.64-.188.949-.31 1.064-1.135 2.641-1.926 3.425-.232.23-.51.409-.766.613-.296.2-.588.407-.889.6-.284.182-1.154.702-.865.527 1.135-.69 2.318-1.307 3.405-2.07.225-.158-.521.17-.788.231-.581.134-.925.142-1.509.19-1.028-.006-2.114-.127-3.073-.527-7.687 5.742-5.002 3.118-3.358 2.725 1.744-.417-.458.28 1.745-.356 1.044-.301 1.46-.506 2.471-.924 3.1-1.578 6.236-3.242 8.627-5.807.657-.705.922-1.115 1.478-1.88.893-1.164 1.29-2.16.97-3.604-.175-.103-.05-.32-.133-.455-1.103-1.792-3.468 1.647-4.636 2.51-.1.072.079.233.1.354.026.144.028.292.042.438.053 1.477-.537 2.85-.807 4.281-.487 1.565-1.174 2.708-2.442 3.748-.212.112-.427.217-.636.335-.225.127-.441.267-.663.4l-.622.37c5.335-3.186 4.467-2.313 2.235-1.797-.104.205-1.412.139-1.555.22-.063.035.223.092.166.136-1.19.915-2.492 1.678-3.695 2.576-.221.165.494-.247.74-.37 2.707-1.53 5.626-2.861 7.877-5.052.542-.527 1.458-1.574 1.96-2.136 1.164-1.342 2.444-2.928 2.904-4.69.053-.203.052-.418.078-.627.01-.96-.46-1.22-1.078-1.809-.224-.213-.397-.458-.585-.702-.646-.708-1.278-1.13-2.202-1.368a9.75 9.75 0 0 1-.84-.289l-4.254 2.865c.309.112.626.196.931.32.813.13 1.463.427 2.033 1.049.195.255.42.57.65.794.505.495.894.534.847 1.363-.238 1.927-1.698 3.503-2.88 4.94-.96 1.05-1.907 2.077-3.045 2.941-.332.253-1.4.903-1.028.715.546-.275 5.042-2.862 2.504-1.403-2.153 1.004-2.259 1.013-5.402 3.41-.106.08.124.264.247.315.288.121 1.372-.118 1.67-.183.233-.053.467-.11.702-.16.249-.052.522-.031.75-.146 2.293-1.154 4.645-2.44 6.795-3.896a8.33 8.33 0 0 0 2.29-4.032c.294-1.482.905-2.899.835-4.437-.007-.166-.018-.332-.02-.498 0-.08.082-.276.012-.238-2.753 1.467-3.864 4.198-4.472 2.23-.04-.132.28.657.161.382.283 1.186-.276 2.185-.968 3.127-.732.979-1.48 1.88-2.402 2.692-.372.328-1.62 1.099-1.15.942.455-.15 4.95-2.684 1.68-.85-1.058.462-2.125.954-3.27 1.165-.234.043-.473.046-.71.063-.183.013-.396-.073-.55.026-1.497.966-2.891 2.083-4.337 3.125 1.051.385 2.208.54 3.316.627.599-.034 1.91-.057 2.426-.315 2.358-1.18 4.662-2.367 6.75-3.954.25-.239.522-.455.747-.716 1.038-1.199 1.755-3.04 1.99-4.59.154-1.06.514-2.728.19-3.787-.044-.142-.135-.265-.201-.397-6.16 3.507-4.392.927-4.26 3.963-.136 1.42-.337 2.86-1.14 4.071-1.118 1.652-2.438 3.108-4.175 4.13l3.762-2.132c-.063.079-.172.137-.188.237-.018.114.06.224.096.334.02.06.008.173.072.179.241.023.31-.586.595-.419 1.403-1.003 2.721-2.105 3.658-3.58.496-.779 1.102-1.631 1.276-2.566.048-.256.278-.863.03-.782-4.192 1.376-3.815.867-4.808 2.67a16.98 16.98 0 0 1-4.167 5.132c-2.573 2.018.154-.205 2.658-1.26.193-.082-.114.507.033.629.359-.176.322-.884.885-.81.433-.35 1.084-.864 1.487-1.248 1.069-1.019 1.957-2.21 2.893-3.346.667-.806 1.314-1.68 2.099-2.38.145-.13.654-.418.471-.348-4.423 1.671-3.636.522-4.607 2-1.061 1.448-2.322 2.729-3.643 3.942-1.117 1.047-2.244 2.074-3.455 3.014-.549.426-1.136.802-1.68 1.235-.118.094-.223.204-.335.306l4.707-1.95zM60.443 130.074l-4.037 2.338c-.369-.234.46-.04.369-.134-.15-.154-.305-.4-.52-.382-.326.026-.574.315-.85.491-.493.315-.97.653-1.455.98-1.096.712-2.123 1.523-3.206 2.252-.332.224-1.387.79-1.02.633 1.546-.66 3.052-1.407 4.562-2.143.2-.098.396-.214.568-.357.286-.238.532-.519.798-.778.009-.055 2.054-1.841 1.955-1.924-.759-.641-1.202-.115-1.868.246-.293.159-.585.32-.877.48-.006.01-.03.03-.018.03.737-.022.45.016 1.054-.564.121-.117.394-.177.368-.343-.037-.243-.28-.641-.504-.54-1.79.806-3.364 2.026-5.047 3.039.834-.406-2.635 2.002-1.895 1.622l4.187-2.45c.286.011.586.13.856.036.282-.097.949-.713.688-.57-1.388.758-2.72 1.615-4.08 2.423-.247-.102-.479-.356-.74-.305-.34.067-.559.406-.834.615-.353.267-.702.538-1.05.812-.247.194-.666.283-.735.59-.054.245.245.69.473.585 1.79-.828 3.35-2.084 5.025-3.127 2.134-2 1.401-1.443-4.497 1.674-.374.198-.643.55-.964.826-1.141.984-.74.627-1.642 1.456 1.582-.704 3.191-1.35 4.746-2.112.154-.075.5-.45.343-.382-1.77.775-3.529 1.587-5.221 2.52-.416.229-.705.636-1.065.945-1.557 1.333-.736.512-1.654 1.473.33.094.676.422.988.282 3.802-1.708 7.046-4.393 10.453-6.729 2.071-1.24 1.799-1.026-4.012 1.49-.186.08-.34.223-.503.343-.12.087-.461.188-.344.279.295.228.71.34 1.081.29.522-.068.967-.416 1.45-.625 2.536-.918 4.804-1.818 7.04-3.578.206-.162-.259-.538-.514-.593-.263-.056-.491.216-.737.323l-.384.165c-5.493 4.496-4.827 3.387-2.95 2.687.215-.08.437-.137.655-.206.106-.033.23-.032.318-.1 1.29-.997 2.617-1.959 3.8-3.081.209-.198-.549.172-.823.258-.162.077-.343.122-.484.232-1.283.998-2.659 1.904-3.778 3.082-.218.23.63-.053.943-.098.357-.052.711-.126 1.067-.193.217-.04.616.09.65-.128.034-.223-.383-.238-.575-.357 1.08-.66 2.21-1.244 3.238-1.982.35-.251-.788.347-1.188.509-.185.074-.405.08-.566.2-1.318.97-2.63 1.958-3.85 3.05-.192.173.495-.157.733-.26.236-.104.457-.239.685-.358.957-.883 2.172-1.55 2.87-2.65.336-.53-1.131.545-1.701.809-.448.207-1.85.481-1.364.572 1.213.228.616.393 1.605-.331.158-.304.796-1.29-.894-.526-1.906.861-3.627 2.084-5.43 3.145-.35.206-1.405.81-1.029.655 1.647-.678 3.29-1.383 4.857-2.23.392-.213.646-.616.968-.924.338-.3.687-.588 1.015-.9.388-.368.66-.57-.163-.906-.143-.06-.571.15-.423.195.225.068.462.088.692.132-.915.486 1.555-1 1.119-.839a82.787 82.787 0 0 0-4.951 2.01c-.183.082-.29.277-.45.397-.08.06-.362.18-.269.142 1.675-.702 3.343-1.42 5.014-2.13l-3.99 2.367c-.158-.108-.284-.325-.476-.322-.187.003-.301.22-.448.336-.146.116-.606.42-.43.357 4.326-1.563 3.448-1.026 5.335-2.299l-3.695 2.229c-.185-.082-.356-.278-.556-.246-.258.04-.435.29-.651.436-.175.118-.55.148-.524.357.034.272.383.626.635.52 1.779-.751 3.341-1.936 5.011-2.904 1.868-1.322 1.436-.962-4.544 1.696-.302.134-.545.373-.817.56-.343.237-1.395.914-1.03.713 4.564-2.518 2.494-2.764 5.086-2.145-1.185.701-2.307 1.523-3.556 2.103-.135.063-.19-.264-.336-.294-.215-.044-.447.012-.652.092-.31.12-1.147.67-.862.5 4.037-2.409 2.353-2.374 4.631-2.214.253-.204.508-.406.759-.611.139-.114.467-.177.411-.348-.084-.262-.402-.454-.677-.475-.257-.02-.453.246-.68.37-.041.021-.166.048-.123.064.173.067.365.067.548.1.464-.476.902-.72.001-1.126-.126-.057.148.263.278.31.275.098.461-.311.55-.437.044-.083.062-.187.133-.25.12-.107.553-.321.416-.24-1.163.697-2.348 1.357-3.494 2.082-.262.166.558-.271.84-.402.365-.169.924-.408 1.307-.574a58.265 58.265 0 0 1 3.029-1.19c.17-.062.422-.01.52-.164.064-.1-.176-.16-.264-.24 5.34-3.707 4.838-2.97 2.903-2.242-.214.08-.455.096-.651.214-1.47.88-3.043 1.64-4.331 2.769-.747.655 1.023.38 1.441.336.23-.069.46-.142.692-.206 1.284-.356-1.477.558-.182-.487 5.373-4.34 5.132-2.565 3.242-2.136-7.183 4.71-3.849 3.033-2.035 2.165.557-.267 1.108-.626 1.712-.786-1.483-1.476-.365-.127 3.585-2.834.194-.133-.447.141-.668.22-.5.179-.984.398-1.489.561-1.29 1.025-2.636 1.98-3.867 3.074-.153.136.394-.105.59-.163.15-.044.954-.278 1.156-.392 1.514-.856 3.16-1.529 4.505-2.632.218-.18-.452-.34-.678-.51.42.577-1 .091-.955.439.025.195.226.335.394.438.052.032.18-.045.154-.102-.095-.219-.225-.657-.445-.563-1.765.758-3.324 1.929-4.986 2.893-2.028 1.256-1.346.822 2.11-1.198l-3.773 3.045c5.539-3.18 3.452-1.953 6.29-3.631-8.051 4.618-2.472 3.018-3.907 1.44-.061-.068-.162.145-.142.234.048.215.133.465.323.576.124.072.274-.09.404-.151.18-.085.35-.193.525-.289-.229-2.33-.283-.6 4.115-3.121.156-.09-.305.191-.47.262-.205.088-.42.151-.635.213-.163.047-.357.016-.498.113-1.45 1-2.827 2.104-4.24 3.156.538-.182 1.04-.446 1.574-.64 1.907-.694 6.503-1.235 5.116-3.474-.795.02-1.252.421-1.946.766-2.444 1.216-3.312.906-5.95 3.923 1.923.035 5.392-2.694 5.625-2.867.186-.14-.058-.5-.226-.66-.262-.252-.903.585-1.04.322-2.192.595.355-.245-.782.47-1.386.87-2.862 1.595-4.243 2.475-.205.13.466-.141.698-.216.258-.084.538-.122.77-.261 1.608-.966 3.155-2.029 4.732-3.043-.098-.11-.149-.307-.294-.327-.214-.03-.413.126-.616.2-.997.362-1.994.734-2.979 1.122-2.641 1.18-6.044 2.31-7.767 4.48-.157.187-.494.53-.476.797.012.19.125.597.286.495.178-.112-.38-1.522-.606-.037-.016.307-.146.629-.047.92.043.126.762.069.945-.3a.857.857 0 0 0-.019-.77c-.064-.111-.177.185-.272.27-.266.238-.54.467-.81.7-.065.376-.558 1.246-.195 1.129 1.704-.55 3.143-1.717 4.707-2.587.373-.207 1.398-.692 1.518-1.254.036-.17-.192-.46-.35-.388-1.717.778-3.282 1.852-4.923 2.779-.144.383-.818 1.284-.431 1.149 1.608-.563 2.967-1.68 4.433-2.549.373-.22.718-.487 1.083-.722.331-.214 1.383-.736 1.005-.623-3.624 1.087-3.18.836-4.793 1.91l3.563-2.053c.02.274-.142.632.057.821.137.13.302-.224.447-.344.248-.205.612-.332.73-.63.101-.256.097-.902-.16-.808-1.737.636-3.249 1.768-4.873 2.651-1.954 1.226-2.006 1.198 3.944-1.392.123-.053.879-.844.887-.884.053-.26.022-.861-.225-.764-1.672.663-3.112 1.802-4.668 2.703 1.48-.544 2.967-1.066 4.438-1.633.064-.024.098-.097.154-.137.184-.135.778-.46.562-.387-3.504 1.188-3.616 1.039-5.557 2.542-.09.31-.267.607-.272.93-.003.19.511.144.57-.037a.77.77 0 0 0-.063-.6c-.046-.079-.1.154-.15.231l-.971.89c-.402.37-1.747 1.179-1.206 1.108 1.506-.2 2.89-.946 4.299-1.515.352-.143 1.296-.791.96-.612-.984.527-1.85 1.315-2.913 1.657-1.283.412.639-1.1.209-.758-.588.396-1.197.604-1.172 1.511.004.148.304.044.444-.006.487-.17.938-.429 1.408-.642 3.37-1.528.986-.295 6.353-4.186-2.081 1.244-2.781 1.702-5.35 3.763-.198.16.466-.203.702-.298.39-.156.807-.257 1.179-.455 1.782-.953 3.514-1.995 5.271-2.993-.062-.242.03-.603-.187-.727-.214-.123-.468.158-.708.214-.33.077-.667.131-1.002.185-.246.04-.53-.037-.741.094-1.322.82-6.105 4.232-3.799 2.707 2.125-1.145.575-.277 4.886-3.41.11-.079-.216.168-.34.22-.217.087-.448.133-.674.194-.221.061-.48.04-.667.172-1.472 1.041-2.848 2.213-4.271 3.32.171-.067.952-.347 1.019-.502.093-.215-.302-.55-.116-.693 1.169-.894 2.588-1.405 3.85-2.163.753-.454-3.726 1.872-2.453.975-.999.368-1.58.188-1.573 1.39 0 .118.182-.15.276-.22.211-.16.89-.558.64-.473-1.574.532-3.11 1.172-4.637 1.824-.216.093-.386.268-.58.402-1.28.918-2.542 1.861-3.849 2.74-.433.292-1.778 1.087-1.311.854 1.05-.522 1.944-1.384 3.066-1.726.29-.088-.172.58-.258.87.565-.734.125-.21 1.429-1.309.408-.343 1.751-1.088 1.22-1.036-1.382.136-2.671.781-3.958 1.305-.197.08-.624.544-.422.478 1.55-.504 3.026-1.212 4.539-1.818.698-.701.522-.551 1.51-1.362.362-.296 1.558-.963 1.1-.87-3.522.72-3.191.753-4.642 1.993 1.173-.634 2.245-1.506 3.518-1.903.248-.077-.138.687.107.773.255.088.404-.356.616-.522.366-.285.743-.555 1.115-.83.323-.24.763-.37.97-.714.174-.29.045-.674.068-1.011-1.488.877-3.002 1.713-4.465 2.632-.366.23-2.54 2.303-1.058 1.829 2.6-.833 4.341-2.532 6.353-4.127-1.183.645-2.273 1.501-3.549 1.934-.22.075.044-.53-.129-.686-.105-.095-.188.211-.283.317-.365.41-1.444 1.437-.27 1.698.292-.164.581-.334.876-.492.285-.154.662-.19.864-.443.172-.215.108-.54.14-.814.004-.041-.03.081-.06.111-.233.24-1.56 1.474-1.706 1.61-.294.275-.612.526-.881.825-.223.247-.907.9-.588.807 1.59-.466 3.065-1.264 4.563-1.972.297-.14.538-.377.806-.567 2.278-1.614.782-.58 3.22-2.237.554-.345 1.104-.696 1.661-1.036.346-.21.803-.293 1.045-.616.457-.612-.304-.962-.631-.789-1.59.84-3.123 1.785-4.685 2.677l4.766-1.839z"/>
  </g>
</svg>
